0
SECTION
2
HEADER
9
$INSUNITS
70
4
9
$ACADVER
1
AC1014
9
$HANDSEED
5
FFFF
0
ENDSEC
0
SECTION
2
TABLES
0
TABLE
2
VPORT
5
8
100
AcDbSymbolTable
0
ENDTAB
0
TABLE
2
LTYPE
5
5
100
AcDbSymbolTable
0
LTYPE
5
14
100
AcDbSymbolTableRecord
100
AcDbLinetypeTableRecord
2
BYBLOCK
70
0
0
LTYPE
5
15
100
AcDbSymbolTableRecord
100
AcDbLinetypeTableRecord
2
BYLAYER
70
0
0
ENDTAB
0
TABLE
2
LAYER
5
2
100
AcDbSymbolTable
70
2
0
LAYER
5
50
100
AcDbSymbolTableRecord
100
AcDbLayerTableRecord
2
0
70
0
6
CONTINUOUS
0
ENDTAB
0
TABLE
2
STYLE
5
3
100
AcDbSymbolTable
70
1
0
STYLE
5
11
100
AcDbSymbolTableRecord
100
AcDbTextStyleTableRecord
2
STANDARD
70
0
0
ENDTAB
0
TABLE
2
VIEW
5
6
100
AcDbSymbolTable
70
0
0
ENDTAB
0
TABLE
2
UCS
5
7
100
AcDbSymbolTable
70
0
0
ENDTAB
0
TABLE
2
APPID
5
9
100
AcDbSymbolTable
70
2
0
APPID
5
12
100
AcDbSymbolTableRecord
100
AcDbRegAppTableRecord
2
ACAD
70
0
0
ENDTAB
0
TABLE
2
DIMSTYLE
5
A
100
AcDbSymbolTable
70
1
0
ENDTAB
0
TABLE
2
BLOCK_RECORD
5
1
100
AcDbSymbolTable
70
1
0
BLOCK_RECORD
5
1F
100
AcDbSymbolTableRecord
100
AcDbBlockTableRecord
2
*MODEL_SPACE
0
BLOCK_RECORD
5
1B
100
AcDbSymbolTableRecord
100
AcDbBlockTableRecord
2
*PAPER_SPACE
0
ENDTAB
0
ENDSEC
0
SECTION
2
BLOCKS
0
BLOCK
5
20
100
AcDbEntity
100
AcDbBlockBegin
2
*MODEL_SPACE
0
ENDBLK
5
21
100
AcDbEntity
100
AcDbBlockEnd
0
BLOCK
5
1C
100
AcDbEntity
100
AcDbBlockBegin
2
*PAPER_SPACE
0
ENDBLK
5
1D
100
AcDbEntity
100
AcDbBlockEnd
0
ENDSEC
0
SECTION
2
ENTITIES
0
SPLINE
5
100
100
AcDbEntity
8
0
100
AcDbSpline
70
0
71
3
72
10
73
6
74
0
42
0.000000001
43
0.0000000001
44
0.0000000001
40
0
40
0
40
0
40
0
40
0.017794851566243216
40
0.017794851566243216
40
0.035589703132486397
40
0.035589703132486397
40
0.035589703132486397
40
0.035589703132486397
10
-28.110801069231584
20
-14.378234858018127
30
0
10
-28.167308911632269
20
-14.360199559445494
30
0
10
-28.220159170836347
20
-14.332251832857301
30
0
10
-28.313592490240506
20
-14.259150206236139
30
0
10
-28.353434423494836
20
-14.214576159146562
30
0
10
-28.384535049553069
20
-14.164067156917543
30
0
0
SPLINE
5
101
100
AcDbEntity
8
0
100
AcDbSpline
70
4
71
5
72
16
73
10
74
0
42
0.000000001
43
0.0000000001
44
0.0000000001
40
0.0048936250392589975
40
0.0048936250392589975
40
0.0048936250392589975
40
0.0048936250392589975
40
0.0048936250392589975
40
0.0048936250392589975
40
0.066666666666666666
40
0.13333333333333333
40
0.20000000000000001
40
0.26666666666666666
40
0.29010308449700245
40
0.29010308449700245
40
0.29010308449700245
40
0.29010308449700245
40
0.29010308449700245
40
0.29010308449700245
41
1
41
1
41
1
41
1
41
1
41
1
41
1
41
1
41
1
41
1
10
-11.757890832197743
20
-23.629137138646549
30
0
10
-12.32107283366445
20
-23.086265471162967
30
0
10
-13.524261760130258
20
-21.990191664553524
30
0
10
-15.453747807317928
20
-20.428450169548427
30
0
10
-18.251471987835973
20
-18.544919563113922
30
0
10
-21.610706381464063
20
-16.800647339020863
30
0
10
-24.452605327830245
20
-15.627020045166528
30
0
10
-26.548785504945492
20
-14.885166290487737
30
0
10
-27.786612292725529
20
-14.481704414274146
30
0
10
-28.110801069231588
20
-14.378234858018148
30
0
0
SPLINE
5
102
100
AcDbEntity
8
0
100
AcDbSpline
70
0
71
3
72
11
73
7
74
0
42
0.000000001
43
0.0000000001
44
0.0000000001
40
-1
40
-1
40
-1
40
-1
40
-0.75
40
-0.5
40
-0.25
40
0
40
0
40
0
40
0
10
-8.3185066389305415
20
-25
30
0
10
-8.6345732317224666
20
-25
30
0
10
-9.2666985751316187
20
-24.93988124145439
30
0
10
-10.180894503776166
20
-24.672580726097308
30
0
10
-11.02831281657912
20
-24.237740566283804
30
0
10
-11.528481030160409
20
-23.846552027300234
30
0
10
-11.757890832197743
20
-23.629137138646549
30
0
0
LINE
5
103
100
AcDbEntity
8
0
100
AcDbLine
10
-8.3185066389305415
20
-25
30
0
11
5.0000000000000009
21
-25
31
0
0
ARC
5
104
100
AcDbEntity
8
0
100
AcDbCircle
10
5.0000000000000044
20
-20.000000000000004
30
0
40
4.9999999999999956
210
0
220
0
230
1
100
AcDbArc
50
-90.000000000000057
51
0
0
LINE
5
105
100
AcDbEntity
8
0
100
AcDbLine
10
10
20
-20
30
0
11
10
21
-18.249999940395355
31
0
0
LINE
5
106
100
AcDbEntity
8
0
100
AcDbLine
10
10
20
-18.249999940395355
30
0
11
15
21
-18.249999940395355
31
0
0
ARC
5
107
100
AcDbEntity
8
0
100
AcDbCircle
10
15.000000000000002
20
-19.249999940395352
30
0
40
0.99999999999999645
210
0
220
0
230
1
100
AcDbArc
50
0
51
90.000000000000099
0
LINE
5
108
100
AcDbEntity
8
0
100
AcDbLine
10
15.999999999999998
20
-19.249999940395355
30
0
11
16
21
-22.749999940395359
31
0
0
ARC
5
109
100
AcDbEntity
8
0
100
AcDbCircle
10
17.000000000000007
20
-22.749999940395355
30
0
40
1.0000000000000075
210
0
220
0
230
1
100
AcDbArc
50
180
51
269.9999999999996
0
LINE
5
110
100
AcDbEntity
8
0
100
AcDbLine
10
17
20
-23.749999940395359
30
0
11
20
21
-23.749999940395359
31
0
0
ARC
5
111
100
AcDbEntity
8
0
100
AcDbCircle
10
19.999999999999996
20
-22.749999940395359
30
0
40
1.0000000000000009
210
0
220
0
230
1
100
AcDbArc
50
-89.999999999999801
51
0
0
LINE
5
112
100
AcDbEntity
8
0
100
AcDbLine
10
21
20
-22.749999940395359
30
0
11
21
21
-12.750000059604645
31
0
0
ARC
5
113
100
AcDbEntity
8
0
100
AcDbCircle
10
19.999999999999996
20
-12.750000059604648
30
0
40
1.0000000000000053
210
0
220
-0
230
1
100
AcDbArc
50
0
51
89.999999999999801
0
LINE
5
114
100
AcDbEntity
8
0
100
AcDbLine
10
20
20
-11.750000059604645
30
0
11
10
21
-11.750000059604648
31
0
0
LINE
5
115
100
AcDbEntity
8
0
100
AcDbLine
10
10
20
-11.750000059604648
30
0
11
9.9999999999983125
21
21.750000059604648
31
0
0
LINE
5
116
100
AcDbEntity
8
0
100
AcDbLine
10
9.9999999999983125
20
21.750000059604648
30
0
11
14.999999999998312
21
21.750000059604648
31
0
0
ARC
5
117
100
AcDbEntity
8
0
100
AcDbCircle
10
14.999999999998305
20
20.750000059604638
30
0
40
1.0000000000000075
210
0
220
-0
230
1
100
AcDbArc
50
0
51
89.999999999999588
0
LINE
5
118
100
AcDbEntity
8
0
100
AcDbLine
10
15.999999999998312
20
20.750000059604645
30
0
11
15.999999999998316
21
17.250000059604645
31
0
0
ARC
5
119
100
AcDbEntity
8
0
100
AcDbCircle
10
16.999999999998316
20
17.250000059604645
30
0
40
0.99999999999999867
210
0
220
0
230
1
100
AcDbArc
50
180
51
270
0
LINE
5
120
100
AcDbEntity
8
0
100
AcDbLine
10
16.999999999998316
20
16.250000059604648
30
0
11
19.999999999998309
21
16.250000059604645
31
0
0
ARC
5
121
100
AcDbEntity
8
0
100
AcDbCircle
10
19.999999999998312
20
17.250000059604645
30
0
40
1.0000000000000031
210
0
220
0
230
1
100
AcDbArc
50
-90.000000000000199
51
0
0
LINE
5
122
100
AcDbEntity
8
0
100
AcDbLine
10
20.999999999998316
20
17.250000059604645
30
0
11
20.999999999998312
21
27.249999940395355
31
0
0
ARC
5
123
100
AcDbEntity
8
0
100
AcDbCircle
10
19.999999999998309
20
27.249999940395352
30
0
40
1.0000000000000053
210
0
220
-0
230
1
100
AcDbArc
50
0
51
89.999999999999801
0
LINE
5
124
100
AcDbEntity
8
0
100
AcDbLine
10
19.999999999998312
20
28.249999940395355
30
0
11
9.9999999999983125
21
28.249999940395355
31
0
0
LINE
5
125
100
AcDbEntity
8
0
100
AcDbLine
10
9.9999999999983125
20
28.249999940395355
30
0
11
9.9999999999966231
21
61.750000059604645
31
0
0
LINE
5
126
100
AcDbEntity
8
0
100
AcDbLine
10
9.9999999999966231
20
61.750000059604645
30
0
11
14.999999999996625
21
61.750000059604645
31
0
0
ARC
5
127
100
AcDbEntity
8
0
100
AcDbCircle
10
14.999999999996628
20
60.750000059604652
30
0
40
0.99999999999999201
210
0
220
0
230
1
100
AcDbArc
50
0
51
90.000000000000199
0
LINE
5
128
100
AcDbEntity
8
0
100
AcDbLine
10
15.999999999996621
20
60.750000059604652
30
0
11
15.999999999996621
21
57.250000059604645
31
0
0
ARC
5
129
100
AcDbEntity
8
0
100
AcDbCircle
10
16.999999999996621
20
57.250000059604638
30
0
40
0.99999999999999867
210
0
220
0
230
1
100
AcDbArc
50
180
51
270.00000000000023
0
LINE
5
130
100
AcDbEntity
8
0
100
AcDbLine
10
16.999999999996625
20
56.250000059604645
30
0
11
19.999999999996621
21
56.250000059604645
31
0
0
ARC
5
131
100
AcDbEntity
8
0
100
AcDbCircle
10
19.999999999996614
20
57.250000059604659
30
0
40
1.0000000000000142
210
0
220
0
230
1
100
AcDbArc
50
270.0000000000004
51
360
0
LINE
5
132
100
AcDbEntity
8
0
100
AcDbLine
10
20.999999999996632
20
57.250000059604645
30
0
11
20.999999999996621
21
67.249999940395355
31
0
0
ARC
5
133
100
AcDbEntity
8
0
100
AcDbCircle
10
19.999999999996628
20
67.249999940395355
30
0
40
0.99999999999999423
210
0
220
0
230
1
100
AcDbArc
50
0
51
90
0
LINE
5
134
100
AcDbEntity
8
0
100
AcDbLine
10
19.999999999996628
20
68.249999940395355
30
0
11
9.9999999999966249
21
68.249999940395355
31
0
0
LINE
5
135
100
AcDbEntity
8
0
100
AcDbLine
10
9.9999999999966249
20
68.249999940395355
30
0
11
9.999999999999984
21
96.347386532398787
31
0
0
SPLINE
5
136
100
AcDbEntity
8
0
100
AcDbSpline
70
0
71
3
72
12
73
8
74
0
42
0.000000001
43
0.0000000001
44
0.0000000001
40
-1
40
-1
40
-1
40
-1
40
-0.80000000000000004
40
-0.59999999999999998
40
-0.40000000000000002
40
-0.20000000000000001
40
0
40
0
40
0
40
0
10
9.3169449094846417
20
95.65765006367981
30
9.8607613152626476e-31
10
9.3602134393939593
20
95.705807409860796
30
-9.8607613152626476e-31
10
9.4476858436052034
20
95.801281711471518
30
-9.8607613152626476e-31
10
9.5816509910439294
20
95.941917972097755
30
-9.8607613152626476e-31
10
9.718322147183633
20
96.079925992125013
30
9.8607613152626476e-31
10
9.8576477590827913
20
96.215253714340918
30
9.8607613152626476e-31
10
9.9522661012384805
20
96.303651299682656
30
-9.8607613152626476e-31
10
9.999999999999984
20
96.347386532398787
30
9.8607613152626476e-31
0
SPLINE
5
137
100
AcDbEntity
8
0
100
AcDbSpline
70
4
71
5
72
47
73
41
74
0
42
0.000000001
43
0.0000000001
44
0.0000000001
40
-0.30402302657025748
40
-0.30402302657025748
40
-0.30402302657025748
40
-0.30402302657025748
40
-0.30402302657025748
40
-0.30402302657025748
40
-0.30400000000000021
40
-0.29600000000000021
40
-0.2880000000000002
40
-0.28000000000000014
40
-0.27200000000000013
40
-0.26400000000000012
40
-0.25600000000000017
40
-0.24800000000000014
40
-0.24000000000000016
40
-0.2320000000000001
40
-0.22400000000000012
40
-0.21600000000000014
40
-0.20800000000000013
40
-0.20000000000000007
40
-0.19200000000000009
40
-0.18400000000000008
40
-0.1760000000000001
40
-0.16800000000000007
40
-0.16000000000000009
40
-0.15200000000000008
40
-0.14400000000000007
40
-0.13600000000000007
40
-0.12800000000000006
40
-0.12000000000000005
40
-0.11200000000000004
40
-0.10400000000000004
40
-0.096000000000000044
40
-0.088000000000000009
40
-0.080000000000000016
40
-0.072000000000000008
40
-0.064000000000000001
40
-0.056000000000000001
40
-0.048000000000000001
40
-0.040000000000000001
40
-0.032000000000000001
40
-0.031351474825332841
40
-0.031351474825332841
40
-0.031351474825332841
40
-0.031351474825332841
40
-0.031351474825332841
40
-0.031351474825332841
41
1
41
1
41
1
41
1
41
1
41
1
41
1
41
1
41
1
41
1
41
1
41
1
41
1
41
1
41
1
41
1
41
1
41
1
41
1
41
1
41
1
41
1
41
1
41
1
41
1
41
1
41
1
41
1
41
1
41
1
41
1
41
1
41
1
41
1
41
1
41
1
41
1
41
1
41
1
41
1
41
1
10
-21.818806464189787
20
98.984337080071171
30
-9.8607613152626476e-31
10
-21.818231224334394
20
98.984100246567436
30
-9.8607613152626476e-31
10
-21.61777689921772
20
98.901642103197602
30
9.8607613152626476e-31
10
-21.198977834195226
20
98.779068651992503
30
-9.8607613152626476e-31
10
-20.512683626619928
20
98.72411633833272
30
9.8607613152626476e-31
10
-19.4723308552426
20
98.911216677178288
30
9.8607613152626476e-31
10
-17.964881808091107
20
99.533625586531429
30
9.8607613152626476e-31
10
-16.271598173041166
20
100.45589574219706
30
9.8607613152626476e-31
10
-14.431292418939734
20
101.56075350644691
30
-9.8607613152626476e-31
10
-12.495905249768882
20
102.71559821605848
30
9.8607613152626476e-31
10
-10.526526858965644
20
103.78692031921474
30
-9.8607613152626476e-31
10
-8.5896441195239497
20
104.6538038534198
30
9.8607613152626476e-31
10
-6.7531813541577819
20
105.22264047015297
30
9.8607613152626476e-31
10
-5.0828930522923006
20
105.43943116343428
30
-9.8607613152626476e-31
10
-3.6379611004961681
20
105.30782783429373
30
-9.8607613152626476e-31
10
-2.4693550501327004
20
104.88671327697629
30
-9.8607613152626476e-31
10
-1.6208290087780624
20
104.2658129771585
30
9.8607613152626476e-31
10
-1.1297353768148404
20
103.54666596708462
30
-9.8607613152626476e-31
10
-1.0267820402822485
20
102.82243174863062
30
-9.8607613152626476e-31
10
-1.339096383124299
20
102.15557356183608
30
9.8607613152626476e-31
10
-2.0723787953575483
20
101.5767412491728
30
-9.8607613152626476e-31
10
-3.1910751664002661
20
101.08956998583338
30
-9.8607613152626476e-31
10
-4.5932206866027281
20
100.67263347114691
30
-9.8607613152626476e-31
10
-6.1072984051749613
20
100.28522960627546
30
-9.8607613152626476e-31
10
-7.5293360908797613
20
99.878178285182855
30
-9.8607613152626476e-31
10
-8.6507975521757565
20
99.403529091740793
30
-9.8607613152626476e-31
10
-9.2903546320784329
20
98.824766699868917
30
9.8607613152626476e-31
10
-9.3235774709693846
20
98.126656389993286
30
-9.8607613152626476e-31
10
-8.714720648764736
20
97.32566605635256
30
-9.8607613152626476e-31
10
-7.5005126703491323
20
96.463619951836563
30
-9.8607613152626476e-31
10
-5.7725694192199501
20
95.600840259092564
30
-9.8607613152626476e-31
10
-3.6603261083954566
20
94.809482676406006
30
-9.8607613152626476e-31
10
-1.3137782387528456
20
94.166799596328715
30
9.8607613152626476e-31
10
1.1137032404819553
20
93.748429505569803
30
9.8607613152626476e-31
10
3.4825381057337346
20
93.621694222258242
30
-9.8607613152626476e-31
10
5.6842436351151102
20
93.838837161360686
30
9.8607613152626476e-31
10
7.2786129975514768
20
94.328610629248161
30
9.8607613152626476e-31
10
8.3369600208723114
20
94.893296400435716
30
9.8607613152626476e-31
10
8.9797169583534284
20
95.36639408210624
30
-9.8607613152626476e-31
10
9.2935265503613778
20
95.637202088189085
30
-9.8607613152626476e-31
10
9.3169449094846399
20
95.65765006367981
30
9.8607613152626476e-31
0
LINE
5
138
100
AcDbEntity
8
0
100
AcDbLine
10
-21.818806464189787
20
98.984337080071171
30
-9.8607613152626476e-31
11
-20.379520196807977
21
107.14693512149908
31
-9.8607613152626476e-31
0
LINE
5
139
100
AcDbEntity
8
0
100
AcDbLine
10
-20.379520196807977
20
107.14693512149908
30
-9.8607613152626476e-31
11
-17.214000296694721
21
109.1764901947576
31
9.8607613152626476e-31
0
LINE
5
140
100
AcDbEntity
8
0
100
AcDbLine
10
-17.214000296694721
20
109.1764901947576
30
9.8607613152626476e-31
11
-19.41604920077264
21
112.61105066504328
31
-9.8607613152626476e-31
0
LINE
5
141
100
AcDbEntity
8
0
100
AcDbLine
10
-19.41604920077264
20
112.61105066504328
30
-9.8607613152626476e-31
11
-34.847986690473988
21
115.33211760908408
31
9.8607613152626476e-31
0
LINE
5
142
100
AcDbEntity
8
0
100
AcDbLine
10
-34.847986690473988
20
115.33211760908408
30
9.8607613152626476e-31
11
-38.091924660553509
21
112.85783156129654
31
-9.8607613152626476e-31
0
LINE
5
143
100
AcDbEntity
8
0
100
AcDbLine
10
-38.091924660553509
20
112.85783156129654
30
-9.8607613152626476e-31
11
-35.811457686509314
21
109.86800206553987
31
9.8607613152626476e-31
0
LINE
5
144
100
AcDbEntity
8
0
100
AcDbLine
10
-35.811457686509314
20
109.86800206553987
30
9.8607613152626476e-31
11
-37.254936645887497
21
101.68162608621763
31
-9.8607613152626476e-31
0
SPLINE
5
145
100
AcDbEntity
8
0
100
AcDbSpline
70
4
71
5
72
72
73
66
74
0
42
0.000000001
43
0.0000000001
44
0.0000000001
40
-1
40
-1
40
-1
40
-1
40
-1
40
-1
40
-0.99200000000000077
40
-0.98400000000000076
40
-0.97600000000000076
40
-0.96800000000000075
40
-0.96000000000000085
40
-0.95200000000000085
40
-0.94400000000000084
40
-0.93600000000000083
40
-0.92800000000000082
40
-0.92000000000000082
40
-0.91200000000000081
40
-0.9040000000000008
40
-0.89600000000000057
40
-0.88800000000000057
40
-0.88000000000000056
40
-0.87200000000000055
40
-0.86400000000000055
40
-0.85600000000000065
40
-0.84800000000000064
40
-0.84000000000000064
40
-0.83200000000000063
40
-0.82400000000000062
40
-0.81600000000000061
40
-0.80800000000000061
40
-0.8000000000000006
40
-0.79200000000000059
40
-0.78400000000000059
40
-0.77600000000000058
40
-0.76800000000000046
40
-0.76000000000000045
40
-0.75200000000000045
40
-0.74400000000000055
40
-0.73600000000000054
40
-0.72800000000000054
40
-0.72000000000000053
40
-0.71200000000000052
40
-0.70400000000000051
40
-0.69600000000000051
40
-0.6880000000000005
40
-0.68000000000000049
40
-0.67200000000000049
40
-0.66400000000000048
40
-0.65600000000000047
40
-0.64800000000000046
40
-0.64000000000000046
40
-0.63200000000000045
40
-0.62400000000000055
40
-0.61600000000000055
40
-0.60800000000000043
40
-0.60000000000000042
40
-0.59200000000000041
40
-0.58400000000000041
40
-0.5760000000000004
40
-0.56800000000000039
40
-0.56000000000000039
40
-0.55200000000000038
40
-0.54400000000000037
40
-0.53600000000000037
40
-0.52800000000000036
40
-0.52000000000000035
40
-0.51236883625821816
40
-0.51236883625821816
40
-0.51236883625821816
40
-0.51236883625821816
40
-0.51236883625821816
40
-0.51236883625821816
41
1
41
1
41
1
41
1
41
1
41
1
41
1
41
1
41
1
41
1
41
1
41
1
41
1
41
1
41
1
41
1
41
1
41
1
41
1
41
1
41
1
41
1
41
1
41
1
41
1
41
1
41
1
41
1
41
1
41
1
41
1
41
1
41
1
41
1
41
1
41
1
41
1
41
1
41
1
41
1
41
1
41
1
41
1
41
1
41
1
41
1
41
1
41
1
41
1
41
1
41
1
41
1
41
1
41
1
41
1
41
1
41
1
41
1
41
1
41
1
41
1
41
1
41
1
41
1
41
1
41
1
10
-73.225123404734219
20
109.73834186744385
30
9.8607613152626476e-31
10
-73.144180068684804
20
109.78779083023831
30
9.8607613152626476e-31
10
-72.946171610284523
20
109.88348419485008
30
9.8607613152626476e-31
10
-72.540794642040652
20
110.01740057966559
30
-9.8607613152626476e-31
10
-71.793684362434433
20
110.16105453826557
30
-9.8607613152626476e-31
10
-70.578286886499356
20
110.20336491998941
30
-9.8607613152626476e-31
10
-69.16842779399407
20
110.03015170147414
30
9.8607613152626476e-31
10
-67.662549672963422
20
109.60008379916125
30
-9.8607613152626476e-31
10
-66.156537023726102
20
108.95556983349913
30
-9.8607613152626476e-31
10
-64.733302369201709
20
108.23618048834257
30
-9.8607613152626476e-31
10
-63.459862754519854
20
107.61842617670005
30
-9.8607613152626476e-31
10
-62.383073619101552
20
107.27198758667552
30
9.8607613152626476e-31
10
-61.52546479070584
20
107.30659933552701
30
9.8607613152626476e-31
10
-60.882030655081429
20
107.72938971291943
30
-9.8607613152626476e-31
10
-60.413431242080264
20
108.38022134391345
30
-9.8607613152626476e-31
10
-60.092477189173366
20
109.04703214844788
30
-9.8607613152626476e-31
10
-59.990653448425363
20
109.6443388258153
30
-9.8607613152626476e-31
10
-60.303386917722648
20
110.33002793522309
30
9.8607613152626476e-31
10
-61.006682352023418
20
111.11108852725678
30
-9.8607613152626476e-31
10
-61.992706460271769
20
111.96521220870393
30
9.8607613152626476e-31
10
-63.080743490742172
20
112.83067927627053
30
9.8607613152626476e-31
10
-64.08234303653623
20
113.65388273601566
30
9.8607613152626476e-31
10
-64.827241131981623
20
114.39225314949489
30
9.8607613152626476e-31
10
-65.188151937917723
20
115.01018510505224
30
-9.8607613152626476e-31
10
-65.100072599107065
20
115.47606784939578
30
-9.8607613152626476e-31
10
-64.592480073280313
20
115.75805117519089
30
-9.8607613152626476e-31
10
-63.777681755927809
20
115.82367910424594
30
-9.8607613152626476e-31
10
-62.791989649921618
20
115.64422505917214
30
9.8607613152626476e-31
10
-61.740509454047398
20
115.19759033890993
30
-9.8607613152626476e-31
10
-60.687003219326641
20
114.47308013476515
30
9.8607613152626476e-31
10
-59.665151264273355
20
113.47647619638693
30
-9.8607613152626476e-31
10
-58.68258144453236
20
112.23510000210943
30
9.8607613152626476e-31
10
-57.727932661887856
20
110.80275582479759
30
-9.8607613152626476e-31
10
-56.776567065272033
20
109.26504735990974
30
-9.8607613152626476e-31
10
-55.79696027627535
20
107.74368478223884
30
-9.8607613152626476e-31
10
-54.759024906650033
20
106.37527477754824
30
-9.8607613152626476e-31
10
-53.642671427950297
20
105.29062775076724
30
9.8607613152626476e-31
10
-52.445868171973075
20
104.59457154095951
30
9.8607613152626476e-31
10
-51.193849080217532
20
104.34395295402645
30
-9.8607613152626476e-31
10
-49.945665004207754
20
104.53012260611729
30
9.8607613152626476e-31
10
-48.80752745003366
20
105.04976536604723
30
9.8607613152626476e-31
10
-47.90913466340286
20
105.74095595945238
30
9.8607613152626476e-31
10
-47.356903568274156
20
106.463382573072
30
-9.8607613152626476e-31
10
-47.206788179153619
20
107.136996249776
30
-9.8607613152626476e-31
10
-47.39898214517293
20
107.8657163467296
30
-9.8607613152626476e-31
10
-47.863172726952818
20
108.66514694498144
30
-9.8607613152626476e-31
10
-48.51286220381705
20
109.50011887957452
30
-9.8607613152626476e-31
10
-49.23895623736491
20
110.31938560107805
30
9.8607613152626476e-31
10
-49.897538955608397
20
111.09792046557068
30
-9.8607613152626476e-31
10
-50.334826082930491
20
111.83187632313648
30
-9.8607613152626476e-31
10
-50.434964651228789
20
112.50481914986722
30
-9.8607613152626476e-31
10
-50.159899137248061
20
113.06340010569187
30
9.8607613152626476e-31
10
-49.595141266783259
20
113.38742052466471
30
-9.8607613152626476e-31
10
-48.879942268137562
20
113.34472083522641
30
9.8607613152626476e-31
10
-48.116799146725953
20
112.86242927871443
30
-9.8607613152626476e-31
10
-47.333563000439263
20
111.95471383231677
30
-9.8607613152626476e-31
10
-46.514781421129726
20
110.69271191497506
30
-9.8607613152626476e-31
10
-45.615947009320095
20
109.1887543503389
30
-9.8607613152626476e-31
10
-44.585198423864149
20
107.57440147860315
30
-9.8607613152626476e-31
10
-43.380541349325867
20
105.98212692834124
30
9.8607613152626476e-31
10
-41.992111151064726
20
104.52304204886974
30
9.8607613152626476e-31
10
-40.466144173816154
20
103.28577626788041
30
9.8607613152626476e-31
10
-39.175203708297012
20
102.50167640340308
30
9.8607613152626476e-31
10
-38.20193627413807
20
102.04039152218279
30
9.8607613152626476e-31
10
-37.563949307128667
20
101.79049183314802
30
9.8607613152626476e-31
10
-37.254936645887497
20
101.68162608621763
30
-9.8607613152626476e-31
0
SPLINE
5
146
100
AcDbEntity
8
0
100
AcDbSpline
70
4
71
5
72
61
73
55
74
0
42
0.000000001
43
0.0000000001
44
0.0000000001
40
0
40
0
40
0
40
0
40
0
40
0
40
0.02
40
0.040000000000000001
40
0.059999999999999998
40
0.080000000000000002
40
0.10000000000000001
40
0.12
40
0.14000000000000001
40
0.16
40
0.17999999999999999
40
0.20000000000000001
40
0.22
40
0.23999999999999999
40
0.25999999999999995
40
0.28000000000000003
40
0.29999999999999999
40
0.32000000000000001
40
0.34000000000000002
40
0.36000000000000004
40
0.38000000000000012
40
0.40000000000000008
40
0.4200000000000001
40
0.44000000000000011
40
0.46000000000000008
40
0.4800000000000002
40
0.50000000000000011
40
0.52000000000000013
40
0.54000000000000015
40
0.56000000000000016
40
0.58000000000000018
40
0.6000000000000002
40
0.62000000000000022
40
0.64000000000000024
40
0.66000000000000025
40
0.68000000000000016
40
0.70000000000000018
40
0.72000000000000031
40
0.74000000000000032
40
0.76000000000000034
40
0.78000000000000025
40
0.80000000000000027
40
0.8200000000000004
40
0.8400000000000003
40
0.86000000000000032
40
0.88000000000000034
40
0.90000000000000036
40
0.92000000000000037
40
0.94000000000000039
40
0.96000000000000041
40
0.98000000000000043
40
1
40
1
40
1
40
1
40
1
40
1
41
1
41
1
41
1
41
1
41
1
41
1
41
1
41
1
41
1
41
1
41
1
41
1
41
1
41
1
41
1
41
1
41
1
41
1
41
1
41
1
41
1
41
1
41
1
41
1
41
1
41
1
41
1
41
1
41
1
41
1
41
1
41
1
41
1
41
1
41
1
41
1
41
1
41
1
41
1
41
1
41
1
41
1
41
1
41
1
41
1
41
1
41
1
41
1
41
1
41
1
41
1
41
1
41
1
41
1
41
1
10
3.8100770619510884
20
69.928535099175093
30
0
10
3.8603914272057698
20
70.310997662319494
30
0
10
3.9499830965484262
20
71.075609817267633
30
0
10
4.051259637522346
20
72.221588217724232
30
0
10
4.1200280555970004
20
73.74768650754433
30
-9.8607613152626476e-31
10
4.0952996002742479
20
75.649421530339524
30
-9.8607613152626476e-31
10
3.9595481045332286
20
77.537124952945419
30
9.8607613152626476e-31
10
3.7124950990925791
20
79.394242148653547
30
-9.8607613152626476e-31
10
3.3538377840031015
20
81.193714181640644
30
9.8607613152626476e-31
10
2.8837396534990924
20
82.893481844733884
30
-9.8607613152626476e-31
10
2.300453884006715
20
84.443927352696377
30
9.8607613152626476e-31
10
1.5965935322285294
20
85.80077902761559
30
-9.8607613152626476e-31
10
0.75599184292361321
20
86.935852655915014
30
-9.8607613152626476e-31
10
-0.25007843318733669
20
87.849696350973417
30
9.8607613152626476e-31
10
-1.4653519585364876
20
88.580723357941054
30
-9.8607613152626476e-31
10
-2.9414215047121446
20
89.190078871306909
30
-9.8607613152626476e-31
10
-4.7313398492304994
20
89.748333906567709
30
9.8607613152626476e-31
10
-6.8832774480282399
20
90.322539453424781
30
9.8607613152626476e-31
10
-9.4333047251931905
20
90.960638324486013
30
-9.8607613152626476e-31
10
-12.402191124214212
20
91.687930839183011
30
9.8607613152626476e-31
10
-15.795200223845915
20
92.512435156887108
30
-9.8607613152626476e-31
10
-19.600916156097725
20
93.427607341218788
30
9.8607613152626476e-31
10
-23.790494657183597
20
94.416053536634621
30
-9.8607613152626476e-31
10
-28.316482995355081
20
95.45289898870287
30
-9.8607613152626476e-31
10
-33.112202454401249
20
96.509004756365357
30
-9.8607613152626476e-31
10
-38.089805676967188
20
97.554870221180011
30
-9.8607613152626476e-31
10
-43.14120717314718
20
98.562757209770368
30
9.8607613152626476e-31
10
-48.132212134913949
20
99.513016313574028
30
-9.8607613152626476e-31
10
-52.912309850789008
20
100.39062941886733
30
9.8607613152626476e-31
10
-57.287213067973397
20
101.20498921199355
30
9.8607613152626476e-31
10
-61.094639360433298
20
101.94524762547921
30
9.8607613152626476e-31
10
-64.258961963628593
20
102.55955891477313
30
-9.8607613152626476e-31
10
-66.762115129169999
20
102.98638013643513
30
9.8607613152626476e-31
10
-68.646773243022608
20
103.16612188991286
30
9.8607613152626476e-31
10
-70.005479755482412
20
103.06070217772501
30
9.8607613152626476e-31
10
-70.977194292020727
20
102.67078790774407
30
-9.8607613152626476e-31
10
-71.737954637977992
20
102.05169750089243
30
-9.8607613152626476e-31
10
-72.501488573906187
20
101.33639400733196
30
-9.8607613152626476e-31
10
-73.455575914463338
20
100.69696409119078
30
9.8607613152626476e-31
10
-74.698882969210203
20
100.2993615603939
30
-9.8607613152626476e-31
10
-76.155078974389312
20
100.25296601196621
30
9.8607613152626476e-31
10
-77.611130699121262
20
100.60065922059789
30
9.8607613152626476e-31
10
-78.817627177038091
20
101.32876306192944
30
-9.8607613152626476e-31
10
-79.565346305222434
20
102.37134679466422
30
-9.8607613152626476e-31
10
-79.781599929344949
20
103.61451934656294
30
-9.8607613152626476e-31
10
-79.50179088608725
20
104.92321364885336
30
-9.8607613152626476e-31
10
-78.828900647833393
20
106.16862456124298
30
9.8607613152626476e-31
10
-77.894100588005728
20
107.2609124006957
30
9.8607613152626476e-31
10
-76.828236266113933
20
108.16034146471182
30
-9.8607613152626476e-31
10
-75.750728727287552
20
108.85639636270682
30
9.8607613152626476e-31
10
-74.755965499943912
20
109.3558575709514
30
9.8607613152626476e-31
10
-74.068139875351591
20
109.60312836555605
30
9.8607613152626476e-31
10
-73.620183499335667
20
109.70369887560025
30
-9.8607613152626476e-31
10
-73.351774492156338
20
109.73307397242792
30
-9.8607613152626476e-31
10
-73.225123404734219
20
109.73834186744385
30
9.8607613152626476e-31
0
SPLINE
5
147
100
AcDbEntity
8
0
100
AcDbSpline
70
4
71
5
72
17
73
11
74
0
42
0.000000001
43
0.0000000001
44
0.0000000001
40
0.43162947013150388
40
0.43162947013150388
40
0.43162947013150388
40
0.43162947013150388
40
0.43162947013150388
40
0.43162947013150388
40
0.5
40
0.59999999999999998
40
0.69999999999999996
40
0.79999999999999982
40
0.8999999999999998
40
1
40
1
40
1
40
1
40
1
40
1
41
1
41
1
41
1
41
1
41
1
41
1
41
1
41
1
41
1
41
1
41
1
10
4.5707062781278864
20
67.794765264870591
30
0
10
4.5408665561550174
20
67.783835229632984
30
0
10
4.4691791557319664
20
67.766611500522842
30
0
10
4.3620377500635037
20
67.77759125112361
30
0
10
4.2307990984625921
20
67.878050071352831
30
0
10
4.0905717137116895
20
68.149506201406098
30
0
10
3.9694235011718733
20
68.593329809561396
30
0
10
3.8934703512839053
20
69.06150798053703
30
0
10
3.8475490377706123
20
69.472227266537345
30
0
10
3.8217630005911851
20
69.772090607896644
30
0
10
3.8100770619510884
20
69.928535099175093
30
0
0
SPLINE
5
148
100
AcDbEntity
8
0
100
AcDbSpline
70
4
71
5
72
21
73
15
74
0
42
0.000000001
43
0.0000000001
44
0.0000000001
40
-0.97132711922599235
40
-0.97132711922599235
40
-0.97132711922599235
40
-0.97132711922599235
40
-0.97132711922599235
40
-0.97132711922599235
40
-0.8999999999999998
40
-0.79999999999999982
40
-0.69999999999999996
40
-0.59999999999999998
40
-0.5
40
-0.40000000000000002
40
-0.30000000000000004
40
-0.20000000000000001
40
-0.10000000000000001
40
-0.011925295913975282
40
-0.011925295913975282
40
-0.011925295913975282
40
-0.011925295913975282
40
-0.011925295913975282
40
-0.011925295913975282
41
1
41
1
41
1
41
1
41
1
41
1
41
1
41
1
41
1
41
1
41
1
41
1
41
1
41
1
41
1
10
-5.4311944692188563
20
9.7507041275428463
30
0
10
-5.0760676853953122
20
10.577312145388193
30
0
10
-4.2390610272606732
20
12.565644025275626
30
0
10
-2.9745953375014906
20
15.725311082119049
30
0
10
-1.3788369531159537
20
20.073297340850548
30
0
10
0.39833763497127089
20
25.636072625923241
30
0
10
1.9744874997813855
20
31.591852895354329
30
0
10
3.2162713621875487
20
37.606685850983183
30
0
10
4.1099167557644369
20
43.683003860731198
30
0
10
4.6691961469359535
20
49.818374556678791
30
0
10
4.9133715265604758
20
55.86070800024725
30
0
10
4.8938316649553659
20
60.702787325936292
30
0
10
4.7687637751672094
20
64.316674945037988
30
0
10
4.6407822166025161
20
66.68424804146963
30
0
10
4.5707062781278838
20
67.794765264870591
30
0
0
SPLINE
5
149
100
AcDbEntity
8
0
100
AcDbSpline
70
4
71
5
72
46
73
40
74
0
42
0.000000001
43
0.0000000001
44
0.0000000001
40
-0.99453258534047184
40
-0.99453258534047184
40
-0.99453258534047184
40
-0.99453258534047184
40
-0.99453258534047184
40
-0.99453258534047184
40
-0.97142857142857164
40
-0.94285714285714295
40
-0.91428571428571459
40
-0.8857142857142859
40
-0.85714285714285732
40
-0.82857142857142863
40
-0.80000000000000016
40
-0.77142857142857146
40
-0.74285714285714299
40
-0.71428571428571441
40
-0.68571428571428583
40
-0.65714285714285725
40
-0.62857142857142867
40
-0.60000000000000009
40
-0.57142857142857151
40
-0.54285714285714293
40
-0.51428571428571435
40
-0.48571428571428582
40
-0.4571428571428573
40
-0.42857142857142871
40
-0.40000000000000008
40
-0.3714285714285715
40
-0.34285714285714292
40
-0.31428571428571433
40
-0.2857142857142857
40
-0.25714285714285717
40
-0.22857142857142854
40
-0.20000000000000001
40
-0.17142857142857146
40
-0.14285714285714285
40
-0.11428571428571427
40
-0.085714285714285715
40
-0.057142857142857134
40
-0.028571428571428567
40
-0.0050468009290948824
40
-0.0050468009290948824
40
-0.0050468009290948824
40
-0.0050468009290948824
40
-0.0050468009290948824
40
-0.0050468009290948824
41
1
41
1
41
1
41
1
41
1
41
1
41
1
41
1
41
1
41
1
41
1
41
1
41
1
41
1
41
1
41
1
41
1
41
1
41
1
41
1
41
1
41
1
41
1
41
1
41
1
41
1
41
1
41
1
41
1
41
1
41
1
41
1
41
1
41
1
41
1
41
1
41
1
41
1
41
1
41
1
10
-28.307018099333931
20
-0.41367291364544667
30
0
10
-28.111240052380811
20
-0.46387461301385313
30
0
10
-27.676409745566897
20
-0.57150734576917839
30
0
10
-27.011775558280839
20
-0.72249487137389046
30
0
10
-26.132886718246535
20
-0.89318657071092966
30
0
10
-25.061782615191394
20
-1.0504666047774158
30
0
10
-23.9905958532432
20
-1.1512085001931285
30
0
10
-22.962580498521753
20
-1.1911038613996183
30
0
10
-21.978575021626163
20
-1.1738240013588097
30
0
10
-21.039567991998183
20
-1.1051144449757366
30
0
10
-20.146839403301414
20
-0.99369995409787748
30
0
10
-19.30131793854305
20
-0.85010820719571012
30
0
10
-18.502401463675689
20
-0.68395707062231637
30
0
10
-17.746782347913747
20
-0.50149811436085656
30
0
10
-17.027553954443821
20
-0.30345245492895856
30
0
10
-16.332438218972062
20
-0.081699348778627709
30
0
10
-15.6450865909654
20
0.1798734114000311
30
0
10
-14.949935565251469
20
0.49961268044302898
30
0
10
-14.23638921647526
20
0.8933821020713496
30
0
10
-13.50276816562203
20
1.3699243816546236
30
0
10
-12.761750483668337
20
1.9248368986145969
30
0
10
-12.036711577359419
20
2.5433740593962639
30
0
10
-11.355136155378796
20
3.2060869780224444
30
0
10
-10.742854935579182
20
3.8936844093224643
30
0
10
-10.218328784879123
20
4.5917486025900267
30
0
10
-9.7859255498584137
20
5.2966235185382615
30
0
10
-9.4325278551796821
20
6.0174215977701273
30
0
10
-9.1346239000111993
20
6.7661093578990616
30
0
10
-8.8636416142741687
20
7.5493639181380168
30
0
10
-8.5916603326741701
20
8.3603852208200617
30
0
10
-8.2975937278024059
20
9.1690693660861573
30
0
10
-7.9711996431912269
20
9.9177019708301568
30
0
10
-7.6093681979881147
20
10.535378550334118
30
0
10
-7.213681030642773
20
10.949638017038621
30
0
10
-6.7876355995515176
20
11.098336150357683
30
0
10
-6.3497296889416708
20
10.949107192016887
30
0
10
-5.983120175443065
20
10.596355681812282
30
0
10
-5.701958867440581
20
10.206102257936571
30
0
10
-5.5160360723766599
20
9.8999716351411138
30
0
10
-5.4311944692188572
20
9.7507041275428463
30
0
0
SPLINE
5
150
100
AcDbEntity
8
0
100
AcDbSpline
70
0
71
3
72
10
73
6
74
0
42
0.000000001
43
0.0000000001
44
0.0000000001
40
0
40
0
40
0
40
0
40
0.022601234408775588
40
0.022601234408775588
40
0.0452024688175508
40
0.0452024688175508
40
0.0452024688175508
40
0.0452024688175508
10
-28.743789313664784
20
-0.46836632472186801
30
0
10
-28.677680284005405
20
-0.43223701151146465
30
7.7037197775489434e-33
10
-28.605354111002875
20
-0.408880032467281
30
0
10
-28.455846835582783
20
-0.39015841665293605
30
0
10
-28.379994565684164
20
-0.39496017908864367
30
7.7037197775489434e-33
10
-28.307018099333931
20
-0.41367291364544639
30
-7.7037197775489434e-33
0
SPLINE
5
151
100
AcDbEntity
8
0
100
AcDbSpline
70
4
71
5
72
21
73
15
74
0
42
0.000000001
43
0.0000000001
44
0.0000000001
40
-0.98569111023021883
40
-0.98569111023021883
40
-0.98569111023021883
40
-0.98569111023021883
40
-0.98569111023021883
40
-0.98569111023021883
40
-0.8999999999999998
40
-0.79999999999999982
40
-0.69999999999999996
40
-0.59999999999999998
40
-0.5
40
-0.40000000000000002
40
-0.30000000000000004
40
-0.20000000000000001
40
-0.10000000000000001
40
-0.019255346393125535
40
-0.019255346393125535
40
-0.019255346393125535
40
-0.019255346393125535
40
-0.019255346393125535
40
-0.019255346393125535
41
1
41
1
41
1
41
1
41
1
41
1
41
1
41
1
41
1
41
1
41
1
41
1
41
1
41
1
41
1
10
-42.066005724014218
20
2.0478798421579785
30
0
10
-41.78035822074915
20
1.8694852393582839
30
0
10
-41.165283270374857
20
1.4935175922468802
30
0
10
-40.232061800475748
20
0.95052581571277162
30
0
10
-38.999852651869226
20
0.29239232750181565
30
0
10
-37.498441679065671
20
-0.4002223480227407
30
0
10
-36.012067977109368
20
-0.9527375978827024
30
0
10
-34.591242049342611
20
-1.3277485282114121
30
0
10
-33.241456078223294
20
-1.5103822295724181
30
0
10
-31.963882307496139
20
-1.4974642489785062
30
0
10
-30.801382431571042
20
-1.3066569696348649
30
0
10
-29.92703586685991
20
-1.0300476023329581
30
0
10
-29.306135565220998
20
-0.76162333486614842
30
0
10
-28.916099770792023
20
-0.56253588835113622
30
0
10
-28.743789313664774
20
-0.46836632472186829
30
0
0
SPLINE
5
152
100
AcDbEntity
8
0
100
AcDbSpline
70
0
71
3
72
10
73
6
74
0
42
0.000000001
43
0.0000000001
44
0.0000000001
40
0
40
0
40
0
40
0
40
0.028145553275189823
40
0.028145553275189823
40
0.056291106550380707
40
0.056291106550380707
40
0.056291106550380707
40
0.056291106550380707
10
-42.587218135757709
20
2.2504944060600822
30
0
10
-42.494970624477936
20
2.2333973404221776
30
0
10
-42.404530234870386
20
2.2076833930804578
30
0
10
-42.229642683957884
20
2.1396981263031161
30
0
10
-42.145580570843705
20
2.0975764893568143
30
0
10
-42.066005724014218
20
2.047879842157982
30
0
0
LINE
5
153
100
AcDbEntity
8
0
100
AcDbLine
10
-42.587218135757709
20
2.2504944060600822
30
0
11
-84.017773795305345
21
9.9291940229834346
31
0
0
SPLINE
5
154
100
AcDbEntity
8
0
100
AcDbSpline
70
0
71
3
72
22
73
18
74
0
42
0.000000001
43
0.0000000001
44
0.0000000001
40
-0.41666286704775946
40
-0.41666286704775946
40
-0.41666286704775946
40
-0.41666286704775946
40
-0.38412144654799751
40
-0.38412144654799751
40
-0.35158002604823424
40
-0.35158002604823424
40
-0.2929833550401954
40
-0.2929833550401954
40
-0.23438668403215646
40
-0.23438668403215646
40
-0.1757900130241169
40
-0.1757900130241169
40
-0.11719334201607852
40
-0.11719334201607852
40
-0.058596671008039163
40
-0.058596671008039163
40
0
40
0
40
0
40
0
10
-85.081389437877334
20
7.1793664034703681
30
0
10
-85.173586170677765
20
7.2365136469759417
30
0
10
-85.259312664420861
20
7.3034933762594036
30
0
10
-85.414814683751231
20
7.4547656536324327
30
0
10
-85.484132461534514
20
7.5386129049145199
30
0
10
-85.651241775676809
20
7.7923155888469031
30
0
10
-85.725796177350801
20
7.9748584653594143
30
0
10
-85.800737101245588
20
8.3582472530326353
30
0
10
-85.800407147388029
20
8.555427758420155
30
0
10
-85.724183552289489
20
8.9385635935204562
30
0
10
-85.649018650162731
20
9.1208559358245083
30
0
10
-85.433044250660828
20
9.446368091277348
30
0
10
-85.294299586260124
20
9.5864758308021756
30
0
10
-84.970914370405552
20
9.8056221443792673
30
0
10
-84.789365557873793
20
9.882565560229768
30
0
10
-84.406993200141841
20
9.9625310817390265
30
0
10
-84.209825343090543
20
9.9647886734275701
30
0
10
-84.017773795305345
20
9.9291940229834328
30
0
0
SPLINE
5
155
100
AcDbEntity
8
0
100
AcDbSpline
70
4
71
5
72
18
73
12
74
0
42
0.000000001
43
0.0000000001
44
0.0000000001
40
0.56155966058583107
40
0.56155966058583107
40
0.56155966058583107
40
0.56155966058583107
40
0.56155966058583107
40
0.56155966058583107
40
0.59999999999999998
40
0.66666666666666663
40
0.73333333333333306
40
0.79999999999999982
40
0.8666666666666667
40
0.93333333333333324
40
0.93711613937809957
40
0.93711613937809957
40
0.93711613937809957
40
0.93711613937809957
40
0.93711613937809957
40
0.93711613937809957
41
1
41
1
41
1
41
1
41
1
41
1
41
1
41
1
41
1
41
1
41
1
41
1
10
-49.534641937712315
20
-8.856745665324171
30
0
10
-50.205367589321249
20
-8.6678933504574118
30
0
10
-52.04948523419641
20
-8.136843138487448
30
0
10
-55.107351128349279
20
-7.1990910954584297
30
0
10
-59.444080696886928
20
-5.7150804701736408
30
0
10
-65.137505121123965
20
-3.4506009561688167
30
0
10
-71.51232765644022
20
-0.50240424439669695
30
0
10
-76.797493582142067
20
2.2789335623078397
30
0
10
-80.840232992273329
20
4.5961419965035946
30
0
10
-83.586992526557282
20
6.2542426690974118
30
0
10
-85.005217374087252
20
7.1321518943927469
30
0
10
-85.081389437877334
20
7.1793664034703744
30
0
0
SPLINE
5
156
100
AcDbEntity
8
0
100
AcDbSpline
70
0
71
3
72
10
73
6
74
0
42
0.000000001
43
0.0000000001
44
0.0000000001
40
0
40
0
40
0
40
0
40
0.0033321331052686256
40
0.0033321331052686256
40
0.0066642662105364627
40
0.0066642662105364627
40
0.0066642662105364627
40
0.0066642662105364627
10
-49.469487527173371
20
-8.8704845562319576
30
0
10
-49.48048412023654
20
-8.8689215970674198
30
0
10
-49.491425580798278
20
-8.8669926506578136
30
0
10
-49.513161809338357
20
-8.8624092054207431
30
0
10
-49.523950543403984
20
-8.8597559789441132
30
0
10
-49.534641937712323
20
-8.856745665324171
30
0
0
SPLINE
5
157
100
AcDbEntity
8
0
100
AcDbSpline
70
4
71
5
72
31
73
25
74
0
42
0.000000001
43
0.0000000001
44
0.0000000001
40
-0.99463670562204642
40
-0.99463670562204642
40
-0.99463670562204642
40
-0.99463670562204642
40
-0.99463670562204642
40
-0.99463670562204642
40
-0.9500000000000004
40
-0.90000000000000024
40
-0.8500000000000002
40
-0.80000000000000016
40
-0.75000000000000022
40
-0.70000000000000007
40
-0.65000000000000002
40
-0.59999999999999998
40
-0.54999999999999993
40
-0.5
40
-0.45000000000000001
40
-0.40000000000000002
40
-0.34999999999999998
40
-0.29999999999999999
40
-0.25
40
-0.20000000000000001
40
-0.15000000000000002
40
-0.10000000000000001
40
-0.050000000000000003
40
-0.00039197528909365648
40
-0.00039197528909365648
40
-0.00039197528909365648
40
-0.00039197528909365648
40
-0.00039197528909365648
40
-0.00039197528909365648
41
1
41
1
41
1
41
1
41
1
41
1
41
1
41
1
41
1
41
1
41
1
41
1
41
1
41
1
41
1
41
1
41
1
41
1
41
1
41
1
41
1
41
1
41
1
41
1
41
1
10
-28.384535049553069
20
-14.164067156917543
30
0
10
-28.545312051006103
20
-13.902957110143507
30
0
10
-28.920787930082735
20
-13.353415237625255
30
0
10
-29.606807134533586
20
-12.526665435952992
30
0
10
-30.761402290436685
20
-11.441294521226968
30
0
10
-32.59963828716635
20
-10.126151774029656
30
0
10
-34.859396467011969
20
-8.8426419888488699
30
0
10
-37.442191433694866
20
-7.6364998807510887
30
0
10
-40.240961398605307
20
-6.5355467811069978
30
0
10
-43.089121783456285
20
-5.5801815654286093
30
0
10
-45.73425032633893
20
-4.8284844296744289
30
0
10
-47.862047192515227
20
-4.34970346202629
30
0
10
-49.181087480608753
20
-4.2037842065895603
30
0
10
-49.495512556126727
20
-4.4233636591584604
30
0
10
-48.778379350259286
20
-4.99569433550759
30
0
10
-47.264867171286717
20
-5.839170224135799
30
0
10
-45.375766925073755
20
-6.8244059934811752
30
0
10
-43.610580150191531
20
-7.8032922080130627
30
0
10
-42.459761178972919
20
-8.6329129466357557
30
0
10
-42.294709232421781
20
-9.2055731777347916
30
0
10
-43.311303148517723
20
-9.4631792204065874
30
0
10
-45.137690937227518
20
-9.397637402407149
30
0
10
-47.083655357924115
20
-9.193541909177517
30
0
10
-48.634107408891545
20
-8.9892181498313999
30
0
10
-49.469487527173392
20
-8.8704845562319594
30
0
0
CIRCLE
5
158
100
AcDbEntity
8
0
100
AcDbCircle
10
18.078622847544331
20
-15.547790288145961
30
0
40
1.25
210
0
220
0
230
1
0
CIRCLE
5
159
100
AcDbEntity
8
0
100
AcDbCircle
10
18.078622847542643
20
24.452209711854039
30
0
40
1.25
210
0
220
0
230
1
0
CIRCLE
5
160
100
AcDbEntity
8
0
100
AcDbCircle
10
18.078622847540952
20
64.452209711854039
30
0
40
1.25
210
0
220
0
230
1
0
LWPOLYLINE
5
161
100
AcDbEntity
8
0
100
AcDbPolyline
90
4
70
1
43
0.0
10
-11.716149519277792
20
-7.5557123257685017
42
0.99999999999999989
10
-11.716149519277792
20
-14.555712325768491
10
-0.21614951927779802
20
-14.555712325768493
42
0.99999999999999989
10
-0.21614951927779513
20
-7.5557123257684999
0
SPLINE
5
162
100
AcDbEntity
8
0
100
AcDbSpline
70
4
71
5
72
61
73
55
74
0
42
0.000000001
43
0.0000000001
44
0.0000000001
40
0
40
0
40
0
40
0
40
0
40
0
40
0.02
40
0.040000000000000001
40
0.059999999999999998
40
0.080000000000000002
40
0.10000000000000001
40
0.12
40
0.14000000000000001
40
0.16
40
0.17999999999999999
40
0.20000000000000001
40
0.22
40
0.23999999999999999
40
0.25999999999999995
40
0.28000000000000003
40
0.29999999999999999
40
0.32000000000000001
40
0.34000000000000002
40
0.36000000000000004
40
0.38000000000000012
40
0.40000000000000008
40
0.4200000000000001
40
0.44000000000000011
40
0.46000000000000008
40
0.4800000000000002
40
0.50000000000000011
40
0.52000000000000013
40
0.54000000000000015
40
0.56000000000000016
40
0.58000000000000018
40
0.6000000000000002
40
0.62000000000000022
40
0.64000000000000024
40
0.66000000000000025
40
0.68000000000000016
40
0.70000000000000018
40
0.72000000000000031
40
0.74000000000000032
40
0.76000000000000034
40
0.78000000000000025
40
0.80000000000000027
40
0.8200000000000004
40
0.8400000000000003
40
0.86000000000000032
40
0.88000000000000034
40
0.90000000000000036
40
0.92000000000000037
40
0.94000000000000039
40
0.96000000000000041
40
0.98000000000000043
40
1
40
1
40
1
40
1
40
1
40
1
41
1
41
1
41
1
41
1
41
1
41
1
41
1
41
1
41
1
41
1
41
1
41
1
41
1
41
1
41
1
41
1
41
1
41
1
41
1
41
1
41
1
41
1
41
1
41
1
41
1
41
1
41
1
41
1
41
1
41
1
41
1
41
1
41
1
41
1
41
1
41
1
41
1
41
1
41
1
41
1
41
1
41
1
41
1
41
1
41
1
41
1
41
1
41
1
41
1
41
1
41
1
41
1
41
1
41
1
41
1
10
3.8100770619510884
20
69.928535099175093
30
0
10
3.8603914272057698
20
70.310997662319494
30
0
10
3.9499830965484262
20
71.075609817267633
30
0
10
4.051259637522346
20
72.221588217724232
30
0
10
4.1200280555970004
20
73.74768650754433
30
-9.8607613152626476e-31
10
4.0952996002742479
20
75.649421530339524
30
-9.8607613152626476e-31
10
3.9595481045332286
20
77.537124952945419
30
9.8607613152626476e-31
10
3.7124950990925791
20
79.394242148653547
30
-9.8607613152626476e-31
10
3.3538377840031015
20
81.193714181640644
30
9.8607613152626476e-31
10
2.8837396534990924
20
82.893481844733884
30
-9.8607613152626476e-31
10
2.300453884006715
20
84.443927352696377
30
9.8607613152626476e-31
10
1.5965935322285294
20
85.80077902761559
30
-9.8607613152626476e-31
10
0.75599184292361321
20
86.935852655915014
30
-9.8607613152626476e-31
10
-0.25007843318733669
20
87.849696350973417
30
9.8607613152626476e-31
10
-1.4653519585364876
20
88.580723357941054
30
-9.8607613152626476e-31
10
-2.9414215047121446
20
89.190078871306909
30
-9.8607613152626476e-31
10
-4.7313398492304994
20
89.748333906567709
30
9.8607613152626476e-31
10
-6.8832774480282399
20
90.322539453424781
30
9.8607613152626476e-31
10
-9.4333047251931905
20
90.960638324486013
30
-9.8607613152626476e-31
10
-12.402191124214212
20
91.687930839183011
30
9.8607613152626476e-31
10
-15.795200223845915
20
92.512435156887108
30
-9.8607613152626476e-31
10
-19.600916156097725
20
93.427607341218788
30
9.8607613152626476e-31
10
-23.790494657183597
20
94.416053536634621
30
-9.8607613152626476e-31
10
-28.316482995355081
20
95.45289898870287
30
-9.8607613152626476e-31
10
-33.112202454401249
20
96.509004756365357
30
-9.8607613152626476e-31
10
-38.089805676967188
20
97.554870221180011
30
-9.8607613152626476e-31
10
-43.14120717314718
20
98.562757209770368
30
9.8607613152626476e-31
10
-48.132212134913949
20
99.513016313574028
30
-9.8607613152626476e-31
10
-52.912309850789008
20
100.39062941886733
30
9.8607613152626476e-31
10
-57.287213067973397
20
101.20498921199355
30
9.8607613152626476e-31
10
-61.094639360433298
20
101.94524762547921
30
9.8607613152626476e-31
10
-64.258961963628593
20
102.55955891477313
30
-9.8607613152626476e-31
10
-66.762115129169999
20
102.98638013643513
30
9.8607613152626476e-31
10
-68.646773243022608
20
103.16612188991286
30
9.8607613152626476e-31
10
-70.005479755482412
20
103.06070217772501
30
9.8607613152626476e-31
10
-70.977194292020727
20
102.67078790774407
30
-9.8607613152626476e-31
10
-71.737954637977992
20
102.05169750089243
30
-9.8607613152626476e-31
10
-72.501488573906187
20
101.33639400733196
30
-9.8607613152626476e-31
10
-73.455575914463338
20
100.69696409119078
30
9.8607613152626476e-31
10
-74.698882969210203
20
100.2993615603939
30
-9.8607613152626476e-31
10
-76.155078974389312
20
100.25296601196621
30
9.8607613152626476e-31
10
-77.611130699121262
20
100.60065922059789
30
9.8607613152626476e-31
10
-78.817627177038091
20
101.32876306192944
30
-9.8607613152626476e-31
10
-79.565346305222434
20
102.37134679466422
30
-9.8607613152626476e-31
10
-79.781599929344949
20
103.61451934656294
30
-9.8607613152626476e-31
10
-79.50179088608725
20
104.92321364885336
30
-9.8607613152626476e-31
10
-78.828900647833393
20
106.16862456124298
30
9.8607613152626476e-31
10
-77.894100588005728
20
107.2609124006957
30
9.8607613152626476e-31
10
-76.828236266113933
20
108.16034146471182
30
-9.8607613152626476e-31
10
-75.750728727287552
20
108.85639636270682
30
9.8607613152626476e-31
10
-74.755965499943912
20
109.3558575709514
30
9.8607613152626476e-31
10
-74.068139875351591
20
109.60312836555605
30
9.8607613152626476e-31
10
-73.620183499335667
20
109.70369887560025
30
-9.8607613152626476e-31
10
-73.351774492156338
20
109.73307397242792
30
-9.8607613152626476e-31
10
-73.225123404734219
20
109.73834186744385
30
9.8607613152626476e-31
0
SPLINE
5
163
100
AcDbEntity
8
0
100
AcDbSpline
70
4
71
5
72
72
73
66
74
0
42
0.000000001
43
0.0000000001
44
0.0000000001
40
-1
40
-1
40
-1
40
-1
40
-1
40
-1
40
-0.99200000000000077
40
-0.98400000000000076
40
-0.97600000000000076
40
-0.96800000000000075
40
-0.96000000000000085
40
-0.95200000000000085
40
-0.94400000000000084
40
-0.93600000000000083
40
-0.92800000000000082
40
-0.92000000000000082
40
-0.91200000000000081
40
-0.9040000000000008
40
-0.89600000000000057
40
-0.88800000000000057
40
-0.88000000000000056
40
-0.87200000000000055
40
-0.86400000000000055
40
-0.85600000000000065
40
-0.84800000000000064
40
-0.84000000000000064
40
-0.83200000000000063
40
-0.82400000000000062
40
-0.81600000000000061
40
-0.80800000000000061
40
-0.8000000000000006
40
-0.79200000000000059
40
-0.78400000000000059
40
-0.77600000000000058
40
-0.76800000000000046
40
-0.76000000000000045
40
-0.75200000000000045
40
-0.74400000000000055
40
-0.73600000000000054
40
-0.72800000000000054
40
-0.72000000000000053
40
-0.71200000000000052
40
-0.70400000000000051
40
-0.69600000000000051
40
-0.6880000000000005
40
-0.68000000000000049
40
-0.67200000000000049
40
-0.66400000000000048
40
-0.65600000000000047
40
-0.64800000000000046
40
-0.64000000000000046
40
-0.63200000000000045
40
-0.62400000000000055
40
-0.61600000000000055
40
-0.60800000000000043
40
-0.60000000000000042
40
-0.59200000000000041
40
-0.58400000000000041
40
-0.5760000000000004
40
-0.56800000000000039
40
-0.56000000000000039
40
-0.55200000000000038
40
-0.54400000000000037
40
-0.53600000000000037
40
-0.52800000000000036
40
-0.52000000000000035
40
-0.51236883625821816
40
-0.51236883625821816
40
-0.51236883625821816
40
-0.51236883625821816
40
-0.51236883625821816
40
-0.51236883625821816
41
1
41
1
41
1
41
1
41
1
41
1
41
1
41
1
41
1
41
1
41
1
41
1
41
1
41
1
41
1
41
1
41
1
41
1
41
1
41
1
41
1
41
1
41
1
41
1
41
1
41
1
41
1
41
1
41
1
41
1
41
1
41
1
41
1
41
1
41
1
41
1
41
1
41
1
41
1
41
1
41
1
41
1
41
1
41
1
41
1
41
1
41
1
41
1
41
1
41
1
41
1
41
1
41
1
41
1
41
1
41
1
41
1
41
1
41
1
41
1
41
1
41
1
41
1
41
1
41
1
41
1
10
-73.225123404734219
20
109.73834186744385
30
9.8607613152626476e-31
10
-73.144180068684804
20
109.78779083023831
30
9.8607613152626476e-31
10
-72.946171610284523
20
109.88348419485008
30
9.8607613152626476e-31
10
-72.540794642040652
20
110.01740057966559
30
-9.8607613152626476e-31
10
-71.793684362434433
20
110.16105453826557
30
-9.8607613152626476e-31
10
-70.578286886499356
20
110.20336491998941
30
-9.8607613152626476e-31
10
-69.16842779399407
20
110.03015170147414
30
9.8607613152626476e-31
10
-67.662549672963422
20
109.60008379916125
30
-9.8607613152626476e-31
10
-66.156537023726102
20
108.95556983349913
30
-9.8607613152626476e-31
10
-64.733302369201709
20
108.23618048834257
30
-9.8607613152626476e-31
10
-63.459862754519854
20
107.61842617670005
30
-9.8607613152626476e-31
10
-62.383073619101552
20
107.27198758667552
30
9.8607613152626476e-31
10
-61.52546479070584
20
107.30659933552701
30
9.8607613152626476e-31
10
-60.882030655081429
20
107.72938971291943
30
-9.8607613152626476e-31
10
-60.413431242080264
20
108.38022134391345
30
-9.8607613152626476e-31
10
-60.092477189173366
20
109.04703214844788
30
-9.8607613152626476e-31
10
-59.990653448425363
20
109.6443388258153
30
-9.8607613152626476e-31
10
-60.303386917722648
20
110.33002793522309
30
9.8607613152626476e-31
10
-61.006682352023418
20
111.11108852725678
30
-9.8607613152626476e-31
10
-61.992706460271769
20
111.96521220870393
30
9.8607613152626476e-31
10
-63.080743490742172
20
112.83067927627053
30
9.8607613152626476e-31
10
-64.08234303653623
20
113.65388273601566
30
9.8607613152626476e-31
10
-64.827241131981623
20
114.39225314949489
30
9.8607613152626476e-31
10
-65.188151937917723
20
115.01018510505224
30
-9.8607613152626476e-31
10
-65.100072599107065
20
115.47606784939578
30
-9.8607613152626476e-31
10
-64.592480073280313
20
115.75805117519089
30
-9.8607613152626476e-31
10
-63.777681755927809
20
115.82367910424594
30
-9.8607613152626476e-31
10
-62.791989649921618
20
115.64422505917214
30
9.8607613152626476e-31
10
-61.740509454047398
20
115.19759033890993
30
-9.8607613152626476e-31
10
-60.687003219326641
20
114.47308013476515
30
9.8607613152626476e-31
10
-59.665151264273355
20
113.47647619638693
30
-9.8607613152626476e-31
10
-58.68258144453236
20
112.23510000210943
30
9.8607613152626476e-31
10
-57.727932661887856
20
110.80275582479759
30
-9.8607613152626476e-31
10
-56.776567065272033
20
109.26504735990974
30
-9.8607613152626476e-31
10
-55.79696027627535
20
107.74368478223884
30
-9.8607613152626476e-31
10
-54.759024906650033
20
106.37527477754824
30
-9.8607613152626476e-31
10
-53.642671427950297
20
105.29062775076724
30
9.8607613152626476e-31
10
-52.445868171973075
20
104.59457154095951
30
9.8607613152626476e-31
10
-51.193849080217532
20
104.34395295402645
30
-9.8607613152626476e-31
10
-49.945665004207754
20
104.53012260611729
30
9.8607613152626476e-31
10
-48.80752745003366
20
105.04976536604723
30
9.8607613152626476e-31
10
-47.90913466340286
20
105.74095595945238
30
9.8607613152626476e-31
10
-47.356903568274156
20
106.463382573072
30
-9.8607613152626476e-31
10
-47.206788179153619
20
107.136996249776
30
-9.8607613152626476e-31
10
-47.39898214517293
20
107.8657163467296
30
-9.8607613152626476e-31
10
-47.863172726952818
20
108.66514694498144
30
-9.8607613152626476e-31
10
-48.51286220381705
20
109.50011887957452
30
-9.8607613152626476e-31
10
-49.23895623736491
20
110.31938560107805
30
9.8607613152626476e-31
10
-49.897538955608397
20
111.09792046557068
30
-9.8607613152626476e-31
10
-50.334826082930491
20
111.83187632313648
30
-9.8607613152626476e-31
10
-50.434964651228789
20
112.50481914986722
30
-9.8607613152626476e-31
10
-50.159899137248061
20
113.06340010569187
30
9.8607613152626476e-31
10
-49.595141266783259
20
113.38742052466471
30
-9.8607613152626476e-31
10
-48.879942268137562
20
113.34472083522641
30
9.8607613152626476e-31
10
-48.116799146725953
20
112.86242927871443
30
-9.8607613152626476e-31
10
-47.333563000439263
20
111.95471383231677
30
-9.8607613152626476e-31
10
-46.514781421129726
20
110.69271191497506
30
-9.8607613152626476e-31
10
-45.615947009320095
20
109.1887543503389
30
-9.8607613152626476e-31
10
-44.585198423864149
20
107.57440147860315
30
-9.8607613152626476e-31
10
-43.380541349325867
20
105.98212692834124
30
9.8607613152626476e-31
10
-41.992111151064726
20
104.52304204886974
30
9.8607613152626476e-31
10
-40.466144173816154
20
103.28577626788041
30
9.8607613152626476e-31
10
-39.175203708297012
20
102.50167640340308
30
9.8607613152626476e-31
10
-38.20193627413807
20
102.04039152218279
30
9.8607613152626476e-31
10
-37.563949307128667
20
101.79049183314802
30
9.8607613152626476e-31
10
-37.254936645887497
20
101.68162608621763
30
-9.8607613152626476e-31
0
LINE
5
164
100
AcDbEntity
8
0
100
AcDbLine
10
-35.811457686509314
20
109.86800206553987
30
9.8607613152626476e-31
11
-37.254936645887497
21
101.68162608621763
31
-9.8607613152626476e-31
0
LINE
5
165
100
AcDbEntity
8
0
100
AcDbLine
10
-38.091924660553509
20
112.85783156129654
30
-9.8607613152626476e-31
11
-35.811457686509314
21
109.86800206553987
31
9.8607613152626476e-31
0
LINE
5
166
100
AcDbEntity
8
0
100
AcDbLine
10
-34.847986690473988
20
115.33211760908408
30
9.8607613152626476e-31
11
-38.091924660553509
21
112.85783156129654
31
-9.8607613152626476e-31
0
LINE
5
167
100
AcDbEntity
8
0
100
AcDbLine
10
-19.41604920077264
20
112.61105066504328
30
-9.8607613152626476e-31
11
-34.847986690473988
21
115.33211760908408
31
9.8607613152626476e-31
0
LINE
5
168
100
AcDbEntity
8
0
100
AcDbLine
10
-17.214000296694721
20
109.1764901947576
30
9.8607613152626476e-31
11
-19.41604920077264
21
112.61105066504328
31
-9.8607613152626476e-31
0
LINE
5
169
100
AcDbEntity
8
0
100
AcDbLine
10
-20.379520196807977
20
107.14693512149908
30
-9.8607613152626476e-31
11
-17.214000296694721
21
109.1764901947576
31
9.8607613152626476e-31
0
LINE
5
170
100
AcDbEntity
8
0
100
AcDbLine
10
-21.818806464189787
20
98.984337080071171
30
-9.8607613152626476e-31
11
-20.379520196807977
21
107.14693512149908
31
-9.8607613152626476e-31
0
SPLINE
5
171
100
AcDbEntity
8
0
100
AcDbSpline
70
4
71
5
72
47
73
41
74
0
42
0.000000001
43
0.0000000001
44
0.0000000001
40
-0.30402302657025748
40
-0.30402302657025748
40
-0.30402302657025748
40
-0.30402302657025748
40
-0.30402302657025748
40
-0.30402302657025748
40
-0.30400000000000021
40
-0.29600000000000021
40
-0.2880000000000002
40
-0.28000000000000014
40
-0.27200000000000013
40
-0.26400000000000012
40
-0.25600000000000017
40
-0.24800000000000014
40
-0.24000000000000016
40
-0.2320000000000001
40
-0.22400000000000012
40
-0.21600000000000014
40
-0.20800000000000013
40
-0.20000000000000007
40
-0.19200000000000009
40
-0.18400000000000008
40
-0.1760000000000001
40
-0.16800000000000007
40
-0.16000000000000009
40
-0.15200000000000008
40
-0.14400000000000007
40
-0.13600000000000007
40
-0.12800000000000006
40
-0.12000000000000005
40
-0.11200000000000004
40
-0.10400000000000004
40
-0.096000000000000044
40
-0.088000000000000009
40
-0.080000000000000016
40
-0.072000000000000008
40
-0.064000000000000001
40
-0.056000000000000001
40
-0.048000000000000001
40
-0.040000000000000001
40
-0.032000000000000001
40
-0.031351474825332841
40
-0.031351474825332841
40
-0.031351474825332841
40
-0.031351474825332841
40
-0.031351474825332841
40
-0.031351474825332841
41
1
41
1
41
1
41
1
41
1
41
1
41
1
41
1
41
1
41
1
41
1
41
1
41
1
41
1
41
1
41
1
41
1
41
1
41
1
41
1
41
1
41
1
41
1
41
1
41
1
41
1
41
1
41
1
41
1
41
1
41
1
41
1
41
1
41
1
41
1
41
1
41
1
41
1
41
1
41
1
41
1
10
-21.818806464189787
20
98.984337080071171
30
-9.8607613152626476e-31
10
-21.818231224334394
20
98.984100246567436
30
-9.8607613152626476e-31
10
-21.61777689921772
20
98.901642103197602
30
9.8607613152626476e-31
10
-21.198977834195226
20
98.779068651992503
30
-9.8607613152626476e-31
10
-20.512683626619928
20
98.72411633833272
30
9.8607613152626476e-31
10
-19.4723308552426
20
98.911216677178288
30
9.8607613152626476e-31
10
-17.964881808091107
20
99.533625586531429
30
9.8607613152626476e-31
10
-16.271598173041166
20
100.45589574219706
30
9.8607613152626476e-31
10
-14.431292418939734
20
101.56075350644691
30
-9.8607613152626476e-31
10
-12.495905249768882
20
102.71559821605848
30
9.8607613152626476e-31
10
-10.526526858965644
20
103.78692031921474
30
-9.8607613152626476e-31
10
-8.5896441195239497
20
104.6538038534198
30
9.8607613152626476e-31
10
-6.7531813541577819
20
105.22264047015297
30
9.8607613152626476e-31
10
-5.0828930522923006
20
105.43943116343428
30
-9.8607613152626476e-31
10
-3.6379611004961681
20
105.30782783429373
30
-9.8607613152626476e-31
10
-2.4693550501327004
20
104.88671327697629
30
-9.8607613152626476e-31
10
-1.6208290087780624
20
104.2658129771585
30
9.8607613152626476e-31
10
-1.1297353768148404
20
103.54666596708462
30
-9.8607613152626476e-31
10
-1.0267820402822485
20
102.82243174863062
30
-9.8607613152626476e-31
10
-1.339096383124299
20
102.15557356183608
30
9.8607613152626476e-31
10
-2.0723787953575483
20
101.5767412491728
30
-9.8607613152626476e-31
10
-3.1910751664002661
20
101.08956998583338
30
-9.8607613152626476e-31
10
-4.5932206866027281
20
100.67263347114691
30
-9.8607613152626476e-31
10
-6.1072984051749613
20
100.28522960627546
30
-9.8607613152626476e-31
10
-7.5293360908797613
20
99.878178285182855
30
-9.8607613152626476e-31
10
-8.6507975521757565
20
99.403529091740793
30
-9.8607613152626476e-31
10
-9.2903546320784329
20
98.824766699868917
30
9.8607613152626476e-31
10
-9.3235774709693846
20
98.126656389993286
30
-9.8607613152626476e-31
10
-8.714720648764736
20
97.32566605635256
30
-9.8607613152626476e-31
10
-7.5005126703491323
20
96.463619951836563
30
-9.8607613152626476e-31
10
-5.7725694192199501
20
95.600840259092564
30
-9.8607613152626476e-31
10
-3.6603261083954566
20
94.809482676406006
30
-9.8607613152626476e-31
10
-1.3137782387528456
20
94.166799596328715
30
9.8607613152626476e-31
10
1.1137032404819553
20
93.748429505569803
30
9.8607613152626476e-31
10
3.4825381057337346
20
93.621694222258242
30
-9.8607613152626476e-31
10
5.6842436351151102
20
93.838837161360686
30
9.8607613152626476e-31
10
7.2786129975514768
20
94.328610629248161
30
9.8607613152626476e-31
10
8.3369600208723114
20
94.893296400435716
30
9.8607613152626476e-31
10
8.9797169583534284
20
95.36639408210624
30
-9.8607613152626476e-31
10
9.2935265503613778
20
95.637202088189085
30
-9.8607613152626476e-31
10
9.3169449094846399
20
95.65765006367981
30
9.8607613152626476e-31
0
SPLINE
5
172
100
AcDbEntity
8
0
100
AcDbSpline
70
0
71
3
72
12
73
8
74
0
42
0.000000001
43
0.0000000001
44
0.0000000001
40
-1
40
-1
40
-1
40
-1
40
-0.80000000000000004
40
-0.59999999999999998
40
-0.40000000000000002
40
-0.20000000000000001
40
0
40
0
40
0
40
0
10
9.3169449094846417
20
95.65765006367981
30
9.8607613152626476e-31
10
9.3602134393939593
20
95.705807409860796
30
-9.8607613152626476e-31
10
9.4476858436052034
20
95.801281711471518
30
-9.8607613152626476e-31
10
9.5816509910439294
20
95.941917972097755
30
-9.8607613152626476e-31
10
9.718322147183633
20
96.079925992125013
30
9.8607613152626476e-31
10
9.8576477590827913
20
96.215253714340918
30
9.8607613152626476e-31
10
9.9522661012384805
20
96.303651299682656
30
-9.8607613152626476e-31
10
9.999999999999984
20
96.347386532398787
30
9.8607613152626476e-31
0
LINE
5
173
100
AcDbEntity
8
0
100
AcDbLine
10
9.9999999999966249
20
68.249999940395355
30
0
11
9.999999999999984
21
96.347386532398787
31
0
0
LINE
5
174
100
AcDbEntity
8
0
100
AcDbLine
10
19.999999999996628
20
68.249999940395355
30
0
11
9.9999999999966249
21
68.249999940395355
31
0
0
ARC
5
175
100
AcDbEntity
8
0
100
AcDbCircle
10
19.999999999996628
20
67.249999940395355
30
0
40
0.99999999999999423
210
0
220
0
230
1
100
AcDbArc
50
0
51
90
0
LINE
5
176
100
AcDbEntity
8
0
100
AcDbLine
10
20.999999999996632
20
57.250000059604645
30
0
11
20.999999999996621
21
67.249999940395355
31
0
0
ARC
5
177
100
AcDbEntity
8
0
100
AcDbCircle
10
19.999999999996614
20
57.250000059604659
30
0
40
1.0000000000000142
210
0
220
0
230
1
100
AcDbArc
50
270.0000000000004
51
360
0
LINE
5
178
100
AcDbEntity
8
0
100
AcDbLine
10
16.999999999996625
20
56.250000059604645
30
0
11
19.999999999996621
21
56.250000059604645
31
0
0
ARC
5
179
100
AcDbEntity
8
0
100
AcDbCircle
10
16.999999999996621
20
57.250000059604638
30
0
40
0.99999999999999867
210
0
220
0
230
1
100
AcDbArc
50
180
51
270.00000000000023
0
LINE
5
180
100
AcDbEntity
8
0
100
AcDbLine
10
15.999999999996621
20
60.750000059604652
30
0
11
15.999999999996621
21
57.250000059604645
31
0
0
ARC
5
181
100
AcDbEntity
8
0
100
AcDbCircle
10
14.999999999996628
20
60.750000059604652
30
0
40
0.99999999999999201
210
0
220
0
230
1
100
AcDbArc
50
0
51
90.000000000000199
0
LINE
5
182
100
AcDbEntity
8
0
100
AcDbLine
10
9.9999999999966231
20
61.750000059604645
30
0
11
14.999999999996625
21
61.750000059604645
31
0
0
LINE
5
183
100
AcDbEntity
8
0
100
AcDbLine
10
9.9999999999983125
20
28.249999940395355
30
0
11
9.9999999999966231
21
61.750000059604645
31
0
0
LINE
5
184
100
AcDbEntity
8
0
100
AcDbLine
10
19.999999999998312
20
28.249999940395355
30
0
11
9.9999999999983125
21
28.249999940395355
31
0
0
ARC
5
185
100
AcDbEntity
8
0
100
AcDbCircle
10
19.999999999998309
20
27.249999940395352
30
0
40
1.0000000000000053
210
0
220
-0
230
1
100
AcDbArc
50
0
51
89.999999999999801
0
LINE
5
186
100
AcDbEntity
8
0
100
AcDbLine
10
20.999999999998316
20
17.250000059604645
30
0
11
20.999999999998312
21
27.249999940395355
31
0
0
ARC
5
187
100
AcDbEntity
8
0
100
AcDbCircle
10
19.999999999998312
20
17.250000059604645
30
0
40
1.0000000000000031
210
0
220
0
230
1
100
AcDbArc
50
-90.000000000000199
51
0
0
LINE
5
188
100
AcDbEntity
8
0
100
AcDbLine
10
16.999999999998316
20
16.250000059604648
30
0
11
19.999999999998309
21
16.250000059604645
31
0
0
ARC
5
189
100
AcDbEntity
8
0
100
AcDbCircle
10
16.999999999998316
20
17.250000059604645
30
0
40
0.99999999999999867
210
0
220
0
230
1
100
AcDbArc
50
180
51
270
0
LINE
5
190
100
AcDbEntity
8
0
100
AcDbLine
10
15.999999999998312
20
20.750000059604645
30
0
11
15.999999999998316
21
17.250000059604645
31
0
0
ARC
5
191
100
AcDbEntity
8
0
100
AcDbCircle
10
14.999999999998305
20
20.750000059604638
30
0
40
1.0000000000000075
210
0
220
-0
230
1
100
AcDbArc
50
0
51
89.999999999999588
0
LINE
5
192
100
AcDbEntity
8
0
100
AcDbLine
10
9.9999999999983125
20
21.750000059604648
30
0
11
14.999999999998312
21
21.750000059604648
31
0
0
LINE
5
193
100
AcDbEntity
8
0
100
AcDbLine
10
10
20
-11.750000059604648
30
0
11
9.9999999999983125
21
21.750000059604648
31
0
0
LINE
5
194
100
AcDbEntity
8
0
100
AcDbLine
10
20
20
-11.750000059604645
30
0
11
10
21
-11.750000059604648
31
0
0
ARC
5
195
100
AcDbEntity
8
0
100
AcDbCircle
10
19.999999999999996
20
-12.750000059604648
30
0
40
1.0000000000000053
210
0
220
-0
230
1
100
AcDbArc
50
0
51
89.999999999999801
0
LINE
5
196
100
AcDbEntity
8
0
100
AcDbLine
10
21
20
-22.749999940395359
30
0
11
21
21
-12.750000059604645
31
0
0
ARC
5
197
100
AcDbEntity
8
0
100
AcDbCircle
10
19.999999999999996
20
-22.749999940395359
30
0
40
1.0000000000000009
210
0
220
0
230
1
100
AcDbArc
50
-89.999999999999801
51
0
0
LINE
5
198
100
AcDbEntity
8
0
100
AcDbLine
10
17
20
-23.749999940395359
30
0
11
20
21
-23.749999940395359
31
0
0
ARC
5
199
100
AcDbEntity
8
0
100
AcDbCircle
10
17.000000000000007
20
-22.749999940395355
30
0
40
1.0000000000000075
210
0
220
0
230
1
100
AcDbArc
50
180
51
269.9999999999996
0
LINE
5
200
100
AcDbEntity
8
0
100
AcDbLine
10
15.999999999999998
20
-19.249999940395355
30
0
11
16
21
-22.749999940395359
31
0
0
ARC
5
201
100
AcDbEntity
8
0
100
AcDbCircle
10
15.000000000000002
20
-19.249999940395352
30
0
40
0.99999999999999645
210
0
220
0
230
1
100
AcDbArc
50
0
51
90.000000000000099
0
LINE
5
202
100
AcDbEntity
8
0
100
AcDbLine
10
10
20
-18.249999940395355
30
0
11
15
21
-18.249999940395355
31
0
0
LINE
5
203
100
AcDbEntity
8
0
100
AcDbLine
10
10
20
-20
30
0
11
10
21
-18.249999940395355
31
0
0
ARC
5
204
100
AcDbEntity
8
0
100
AcDbCircle
10
5.0000000000000044
20
-20.000000000000004
30
0
40
4.9999999999999956
210
0
220
0
230
1
100
AcDbArc
50
-90.000000000000057
51
0
0
LINE
5
205
100
AcDbEntity
8
0
100
AcDbLine
10
-8.3185066389305415
20
-25
30
0
11
5.0000000000000009
21
-25
31
0
0
SPLINE
5
206
100
AcDbEntity
8
0
100
AcDbSpline
70
0
71
3
72
11
73
7
74
0
42
0.000000001
43
0.0000000001
44
0.0000000001
40
-1
40
-1
40
-1
40
-1
40
-0.75
40
-0.5
40
-0.25
40
0
40
0
40
0
40
0
10
-8.3185066389305415
20
-25
30
0
10
-8.6345732317224666
20
-25
30
0
10
-9.2666985751316187
20
-24.93988124145439
30
0
10
-10.180894503776166
20
-24.672580726097308
30
0
10
-11.02831281657912
20
-24.237740566283804
30
0
10
-11.528481030160409
20
-23.846552027300234
30
0
10
-11.757890832197743
20
-23.629137138646549
30
0
0
SPLINE
5
207
100
AcDbEntity
8
0
100
AcDbSpline
70
4
71
5
72
16
73
10
74
0
42
0.000000001
43
0.0000000001
44
0.0000000001
40
0.0048936250392589975
40
0.0048936250392589975
40
0.0048936250392589975
40
0.0048936250392589975
40
0.0048936250392589975
40
0.0048936250392589975
40
0.066666666666666666
40
0.13333333333333333
40
0.20000000000000001
40
0.26666666666666666
40
0.29010308449700245
40
0.29010308449700245
40
0.29010308449700245
40
0.29010308449700245
40
0.29010308449700245
40
0.29010308449700245
41
1
41
1
41
1
41
1
41
1
41
1
41
1
41
1
41
1
41
1
10
-11.757890832197743
20
-23.629137138646549
30
0
10
-12.32107283366445
20
-23.086265471162967
30
0
10
-13.524261760130258
20
-21.990191664553524
30
0
10
-15.453747807317928
20
-20.428450169548427
30
0
10
-18.251471987835973
20
-18.544919563113922
30
0
10
-21.610706381464063
20
-16.800647339020863
30
0
10
-24.452605327830245
20
-15.627020045166528
30
0
10
-26.548785504945492
20
-14.885166290487737
30
0
10
-27.786612292725529
20
-14.481704414274146
30
0
10
-28.110801069231588
20
-14.378234858018148
30
0
0
SPLINE
5
208
100
AcDbEntity
8
0
100
AcDbSpline
70
0
71
3
72
10
73
6
74
0
42
0.000000001
43
0.0000000001
44
0.0000000001
40
0
40
0
40
0
40
0
40
0.017794851566243216
40
0.017794851566243216
40
0.035589703132486397
40
0.035589703132486397
40
0.035589703132486397
40
0.035589703132486397
10
-28.110801069231584
20
-14.378234858018127
30
0
10
-28.167308911632269
20
-14.360199559445494
30
0
10
-28.220159170836347
20
-14.332251832857301
30
0
10
-28.313592490240506
20
-14.259150206236139
30
0
10
-28.353434423494836
20
-14.214576159146562
30
0
10
-28.384535049553069
20
-14.164067156917543
30
0
0
SPLINE
5
209
100
AcDbEntity
8
0
100
AcDbSpline
70
4
71
5
72
31
73
25
74
0
42
0.000000001
43
0.0000000001
44
0.0000000001
40
-0.99463670562204642
40
-0.99463670562204642
40
-0.99463670562204642
40
-0.99463670562204642
40
-0.99463670562204642
40
-0.99463670562204642
40
-0.9500000000000004
40
-0.90000000000000024
40
-0.8500000000000002
40
-0.80000000000000016
40
-0.75000000000000022
40
-0.70000000000000007
40
-0.65000000000000002
40
-0.59999999999999998
40
-0.54999999999999993
40
-0.5
40
-0.45000000000000001
40
-0.40000000000000002
40
-0.34999999999999998
40
-0.29999999999999999
40
-0.25
40
-0.20000000000000001
40
-0.15000000000000002
40
-0.10000000000000001
40
-0.050000000000000003
40
-0.00039197528909365648
40
-0.00039197528909365648
40
-0.00039197528909365648
40
-0.00039197528909365648
40
-0.00039197528909365648
40
-0.00039197528909365648
41
1
41
1
41
1
41
1
41
1
41
1
41
1
41
1
41
1
41
1
41
1
41
1
41
1
41
1
41
1
41
1
41
1
41
1
41
1
41
1
41
1
41
1
41
1
41
1
41
1
10
-28.384535049553069
20
-14.164067156917543
30
0
10
-28.545312051006103
20
-13.902957110143507
30
0
10
-28.920787930082735
20
-13.353415237625255
30
0
10
-29.606807134533586
20
-12.526665435952992
30
0
10
-30.761402290436685
20
-11.441294521226968
30
0
10
-32.59963828716635
20
-10.126151774029656
30
0
10
-34.859396467011969
20
-8.8426419888488699
30
0
10
-37.442191433694866
20
-7.6364998807510887
30
0
10
-40.240961398605307
20
-6.5355467811069978
30
0
10
-43.089121783456285
20
-5.5801815654286093
30
0
10
-45.73425032633893
20
-4.8284844296744289
30
0
10
-47.862047192515227
20
-4.34970346202629
30
0
10
-49.181087480608753
20
-4.2037842065895603
30
0
10
-49.495512556126727
20
-4.4233636591584604
30
0
10
-48.778379350259286
20
-4.99569433550759
30
0
10
-47.264867171286717
20
-5.839170224135799
30
0
10
-45.375766925073755
20
-6.8244059934811752
30
0
10
-43.610580150191531
20
-7.8032922080130627
30
0
10
-42.459761178972919
20
-8.6329129466357557
30
0
10
-42.294709232421781
20
-9.2055731777347916
30
0
10
-43.311303148517723
20
-9.4631792204065874
30
0
10
-45.137690937227518
20
-9.397637402407149
30
0
10
-47.083655357924115
20
-9.193541909177517
30
0
10
-48.634107408891545
20
-8.9892181498313999
30
0
10
-49.469487527173392
20
-8.8704845562319594
30
0
0
SPLINE
5
210
100
AcDbEntity
8
0
100
AcDbSpline
70
0
71
3
72
10
73
6
74
0
42
0.000000001
43
0.0000000001
44
0.0000000001
40
0
40
0
40
0
40
0
40
0.0033321331052686256
40
0.0033321331052686256
40
0.0066642662105364627
40
0.0066642662105364627
40
0.0066642662105364627
40
0.0066642662105364627
10
-49.469487527173371
20
-8.8704845562319576
30
0
10
-49.48048412023654
20
-8.8689215970674198
30
0
10
-49.491425580798278
20
-8.8669926506578136
30
0
10
-49.513161809338357
20
-8.8624092054207431
30
0
10
-49.523950543403984
20
-8.8597559789441132
30
0
10
-49.534641937712323
20
-8.856745665324171
30
0
0
SPLINE
5
211
100
AcDbEntity
8
0
100
AcDbSpline
70
4
71
5
72
18
73
12
74
0
42
0.000000001
43
0.0000000001
44
0.0000000001
40
0.56155966058583107
40
0.56155966058583107
40
0.56155966058583107
40
0.56155966058583107
40
0.56155966058583107
40
0.56155966058583107
40
0.59999999999999998
40
0.66666666666666663
40
0.73333333333333306
40
0.79999999999999982
40
0.8666666666666667
40
0.93333333333333324
40
0.93711613937809957
40
0.93711613937809957
40
0.93711613937809957
40
0.93711613937809957
40
0.93711613937809957
40
0.93711613937809957
41
1
41
1
41
1
41
1
41
1
41
1
41
1
41
1
41
1
41
1
41
1
41
1
10
-49.534641937712315
20
-8.856745665324171
30
0
10
-50.205367589321249
20
-8.6678933504574118
30
0
10
-52.04948523419641
20
-8.136843138487448
30
0
10
-55.107351128349279
20
-7.1990910954584297
30
0
10
-59.444080696886928
20
-5.7150804701736408
30
0
10
-65.137505121123965
20
-3.4506009561688167
30
0
10
-71.51232765644022
20
-0.50240424439669695
30
0
10
-76.797493582142067
20
2.2789335623078397
30
0
10
-80.840232992273329
20
4.5961419965035946
30
0
10
-83.586992526557282
20
6.2542426690974118
30
0
10
-85.005217374087252
20
7.1321518943927469
30
0
10
-85.081389437877334
20
7.1793664034703744
30
0
0
SPLINE
5
212
100
AcDbEntity
8
0
100
AcDbSpline
70
0
71
3
72
22
73
18
74
0
42
0.000000001
43
0.0000000001
44
0.0000000001
40
-0.41666286704775946
40
-0.41666286704775946
40
-0.41666286704775946
40
-0.41666286704775946
40
-0.38412144654799751
40
-0.38412144654799751
40
-0.35158002604823424
40
-0.35158002604823424
40
-0.2929833550401954
40
-0.2929833550401954
40
-0.23438668403215646
40
-0.23438668403215646
40
-0.1757900130241169
40
-0.1757900130241169
40
-0.11719334201607852
40
-0.11719334201607852
40
-0.058596671008039163
40
-0.058596671008039163
40
0
40
0
40
0
40
0
10
-85.081389437877334
20
7.1793664034703681
30
0
10
-85.173586170677765
20
7.2365136469759417
30
0
10
-85.259312664420861
20
7.3034933762594036
30
0
10
-85.414814683751231
20
7.4547656536324327
30
0
10
-85.484132461534514
20
7.5386129049145199
30
0
10
-85.651241775676809
20
7.7923155888469031
30
0
10
-85.725796177350801
20
7.9748584653594143
30
0
10
-85.800737101245588
20
8.3582472530326353
30
0
10
-85.800407147388029
20
8.555427758420155
30
0
10
-85.724183552289489
20
8.9385635935204562
30
0
10
-85.649018650162731
20
9.1208559358245083
30
0
10
-85.433044250660828
20
9.446368091277348
30
0
10
-85.294299586260124
20
9.5864758308021756
30
0
10
-84.970914370405552
20
9.8056221443792673
30
0
10
-84.789365557873793
20
9.882565560229768
30
0
10
-84.406993200141841
20
9.9625310817390265
30
0
10
-84.209825343090543
20
9.9647886734275701
30
0
10
-84.017773795305345
20
9.9291940229834328
30
0
0
LINE
5
213
100
AcDbEntity
8
0
100
AcDbLine
10
-42.587218135757709
20
2.2504944060600822
30
0
11
-84.017773795305345
21
9.9291940229834346
31
0
0
SPLINE
5
214
100
AcDbEntity
8
0
100
AcDbSpline
70
0
71
3
72
10
73
6
74
0
42
0.000000001
43
0.0000000001
44
0.0000000001
40
0
40
0
40
0
40
0
40
0.028145553275189823
40
0.028145553275189823
40
0.056291106550380707
40
0.056291106550380707
40
0.056291106550380707
40
0.056291106550380707
10
-42.587218135757709
20
2.2504944060600822
30
0
10
-42.494970624477936
20
2.2333973404221776
30
0
10
-42.404530234870386
20
2.2076833930804578
30
0
10
-42.229642683957884
20
2.1396981263031161
30
0
10
-42.145580570843705
20
2.0975764893568143
30
0
10
-42.066005724014218
20
2.047879842157982
30
0
0
SPLINE
5
215
100
AcDbEntity
8
0
100
AcDbSpline
70
4
71
5
72
21
73
15
74
0
42
0.000000001
43
0.0000000001
44
0.0000000001
40
-0.98569111023021883
40
-0.98569111023021883
40
-0.98569111023021883
40
-0.98569111023021883
40
-0.98569111023021883
40
-0.98569111023021883
40
-0.8999999999999998
40
-0.79999999999999982
40
-0.69999999999999996
40
-0.59999999999999998
40
-0.5
40
-0.40000000000000002
40
-0.30000000000000004
40
-0.20000000000000001
40
-0.10000000000000001
40
-0.019255346393125535
40
-0.019255346393125535
40
-0.019255346393125535
40
-0.019255346393125535
40
-0.019255346393125535
40
-0.019255346393125535
41
1
41
1
41
1
41
1
41
1
41
1
41
1
41
1
41
1
41
1
41
1
41
1
41
1
41
1
41
1
10
-42.066005724014218
20
2.0478798421579785
30
0
10
-41.78035822074915
20
1.8694852393582839
30
0
10
-41.165283270374857
20
1.4935175922468802
30
0
10
-40.232061800475748
20
0.95052581571277162
30
0
10
-38.999852651869226
20
0.29239232750181565
30
0
10
-37.498441679065671
20
-0.4002223480227407
30
0
10
-36.012067977109368
20
-0.9527375978827024
30
0
10
-34.591242049342611
20
-1.3277485282114121
30
0
10
-33.241456078223294
20
-1.5103822295724181
30
0
10
-31.963882307496139
20
-1.4974642489785062
30
0
10
-30.801382431571042
20
-1.3066569696348649
30
0
10
-29.92703586685991
20
-1.0300476023329581
30
0
10
-29.306135565220998
20
-0.76162333486614842
30
0
10
-28.916099770792023
20
-0.56253588835113622
30
0
10
-28.743789313664774
20
-0.46836632472186829
30
0
0
SPLINE
5
216
100
AcDbEntity
8
0
100
AcDbSpline
70
0
71
3
72
10
73
6
74
0
42
0.000000001
43
0.0000000001
44
0.0000000001
40
0
40
0
40
0
40
0
40
0.022601234408775588
40
0.022601234408775588
40
0.0452024688175508
40
0.0452024688175508
40
0.0452024688175508
40
0.0452024688175508
10
-28.743789313664784
20
-0.46836632472186801
30
0
10
-28.677680284005405
20
-0.43223701151146465
30
7.7037197775489434e-33
10
-28.605354111002875
20
-0.408880032467281
30
0
10
-28.455846835582783
20
-0.39015841665293605
30
0
10
-28.379994565684164
20
-0.39496017908864367
30
7.7037197775489434e-33
10
-28.307018099333931
20
-0.41367291364544639
30
-7.7037197775489434e-33
0
SPLINE
5
217
100
AcDbEntity
8
0
100
AcDbSpline
70
4
71
5
72
46
73
40
74
0
42
0.000000001
43
0.0000000001
44
0.0000000001
40
-0.99453258534047184
40
-0.99453258534047184
40
-0.99453258534047184
40
-0.99453258534047184
40
-0.99453258534047184
40
-0.99453258534047184
40
-0.97142857142857164
40
-0.94285714285714295
40
-0.91428571428571459
40
-0.8857142857142859
40
-0.85714285714285732
40
-0.82857142857142863
40
-0.80000000000000016
40
-0.77142857142857146
40
-0.74285714285714299
40
-0.71428571428571441
40
-0.68571428571428583
40
-0.65714285714285725
40
-0.62857142857142867
40
-0.60000000000000009
40
-0.57142857142857151
40
-0.54285714285714293
40
-0.51428571428571435
40
-0.48571428571428582
40
-0.4571428571428573
40
-0.42857142857142871
40
-0.40000000000000008
40
-0.3714285714285715
40
-0.34285714285714292
40
-0.31428571428571433
40
-0.2857142857142857
40
-0.25714285714285717
40
-0.22857142857142854
40
-0.20000000000000001
40
-0.17142857142857146
40
-0.14285714285714285
40
-0.11428571428571427
40
-0.085714285714285715
40
-0.057142857142857134
40
-0.028571428571428567
40
-0.0050468009290948824
40
-0.0050468009290948824
40
-0.0050468009290948824
40
-0.0050468009290948824
40
-0.0050468009290948824
40
-0.0050468009290948824
41
1
41
1
41
1
41
1
41
1
41
1
41
1
41
1
41
1
41
1
41
1
41
1
41
1
41
1
41
1
41
1
41
1
41
1
41
1
41
1
41
1
41
1
41
1
41
1
41
1
41
1
41
1
41
1
41
1
41
1
41
1
41
1
41
1
41
1
41
1
41
1
41
1
41
1
41
1
41
1
10
-28.307018099333931
20
-0.41367291364544667
30
0
10
-28.111240052380811
20
-0.46387461301385313
30
0
10
-27.676409745566897
20
-0.57150734576917839
30
0
10
-27.011775558280839
20
-0.72249487137389046
30
0
10
-26.132886718246535
20
-0.89318657071092966
30
0
10
-25.061782615191394
20
-1.0504666047774158
30
0
10
-23.9905958532432
20
-1.1512085001931285
30
0
10
-22.962580498521753
20
-1.1911038613996183
30
0
10
-21.978575021626163
20
-1.1738240013588097
30
0
10
-21.039567991998183
20
-1.1051144449757366
30
0
10
-20.146839403301414
20
-0.99369995409787748
30
0
10
-19.30131793854305
20
-0.85010820719571012
30
0
10
-18.502401463675689
20
-0.68395707062231637
30
0
10
-17.746782347913747
20
-0.50149811436085656
30
0
10
-17.027553954443821
20
-0.30345245492895856
30
0
10
-16.332438218972062
20
-0.081699348778627709
30
0
10
-15.6450865909654
20
0.1798734114000311
30
0
10
-14.949935565251469
20
0.49961268044302898
30
0
10
-14.23638921647526
20
0.8933821020713496
30
0
10
-13.50276816562203
20
1.3699243816546236
30
0
10
-12.761750483668337
20
1.9248368986145969
30
0
10
-12.036711577359419
20
2.5433740593962639
30
0
10
-11.355136155378796
20
3.2060869780224444
30
0
10
-10.742854935579182
20
3.8936844093224643
30
0
10
-10.218328784879123
20
4.5917486025900267
30
0
10
-9.7859255498584137
20
5.2966235185382615
30
0
10
-9.4325278551796821
20
6.0174215977701273
30
0
10
-9.1346239000111993
20
6.7661093578990616
30
0
10
-8.8636416142741687
20
7.5493639181380168
30
0
10
-8.5916603326741701
20
8.3603852208200617
30
0
10
-8.2975937278024059
20
9.1690693660861573
30
0
10
-7.9711996431912269
20
9.9177019708301568
30
0
10
-7.6093681979881147
20
10.535378550334118
30
0
10
-7.213681030642773
20
10.949638017038621
30
0
10
-6.7876355995515176
20
11.098336150357683
30
0
10
-6.3497296889416708
20
10.949107192016887
30
0
10
-5.983120175443065
20
10.596355681812282
30
0
10
-5.701958867440581
20
10.206102257936571
30
0
10
-5.5160360723766599
20
9.8999716351411138
30
0
10
-5.4311944692188572
20
9.7507041275428463
30
0
0
SPLINE
5
218
100
AcDbEntity
8
0
100
AcDbSpline
70
4
71
5
72
21
73
15
74
0
42
0.000000001
43
0.0000000001
44
0.0000000001
40
-0.97132711922599235
40
-0.97132711922599235
40
-0.97132711922599235
40
-0.97132711922599235
40
-0.97132711922599235
40
-0.97132711922599235
40
-0.8999999999999998
40
-0.79999999999999982
40
-0.69999999999999996
40
-0.59999999999999998
40
-0.5
40
-0.40000000000000002
40
-0.30000000000000004
40
-0.20000000000000001
40
-0.10000000000000001
40
-0.011925295913975282
40
-0.011925295913975282
40
-0.011925295913975282
40
-0.011925295913975282
40
-0.011925295913975282
40
-0.011925295913975282
41
1
41
1
41
1
41
1
41
1
41
1
41
1
41
1
41
1
41
1
41
1
41
1
41
1
41
1
41
1
10
-5.4311944692188563
20
9.7507041275428463
30
0
10
-5.0760676853953122
20
10.577312145388193
30
0
10
-4.2390610272606732
20
12.565644025275626
30
0
10
-2.9745953375014906
20
15.725311082119049
30
0
10
-1.3788369531159537
20
20.073297340850548
30
0
10
0.39833763497127089
20
25.636072625923241
30
0
10
1.9744874997813855
20
31.591852895354329
30
0
10
3.2162713621875487
20
37.606685850983183
30
0
10
4.1099167557644369
20
43.683003860731198
30
0
10
4.6691961469359535
20
49.818374556678791
30
0
10
4.9133715265604758
20
55.86070800024725
30
0
10
4.8938316649553659
20
60.702787325936292
30
0
10
4.7687637751672094
20
64.316674945037988
30
0
10
4.6407822166025161
20
66.68424804146963
30
0
10
4.5707062781278838
20
67.794765264870591
30
0
0
SPLINE
5
219
100
AcDbEntity
8
0
100
AcDbSpline
70
4
71
5
72
17
73
11
74
0
42
0.000000001
43
0.0000000001
44
0.0000000001
40
0.43162947013150388
40
0.43162947013150388
40
0.43162947013150388
40
0.43162947013150388
40
0.43162947013150388
40
0.43162947013150388
40
0.5
40
0.59999999999999998
40
0.69999999999999996
40
0.79999999999999982
40
0.8999999999999998
40
1
40
1
40
1
40
1
40
1
40
1
41
1
41
1
41
1
41
1
41
1
41
1
41
1
41
1
41
1
41
1
41
1
10
4.5707062781278864
20
67.794765264870591
30
0
10
4.5408665561550174
20
67.783835229632984
30
0
10
4.4691791557319664
20
67.766611500522842
30
0
10
4.3620377500635037
20
67.77759125112361
30
0
10
4.2307990984625921
20
67.878050071352831
30
0
10
4.0905717137116895
20
68.149506201406098
30
0
10
3.9694235011718733
20
68.593329809561396
30
0
10
3.8934703512839053
20
69.06150798053703
30
0
10
3.8475490377706123
20
69.472227266537345
30
0
10
3.8217630005911851
20
69.772090607896644
30
0
10
3.8100770619510884
20
69.928535099175093
30
0
0
ENDSEC
0
SECTION
2
OBJECTS
0
DICTIONARY
5
C
100
AcDbDictionary
3
ACAD_GROUP
350
D
3
ACAD_MLINESTYLE
350
17
0
DICTIONARY
5
D
100
AcDbDictionary
0
DICTIONARY
5
1A
330
C
100
AcDbDictionary
0
DICTIONARY
5
17
100
AcDbDictionary
0
ENDSEC
0
EOF
